<svg class="ðŸœ" xmlns="http://www.w3.org/2000/svg" viewBox="0 0 325.65 48"><path class="ðŸœ-sub" fill="#4fb76c" d="M312.47,30.1c-1.4,6.58-4.76,9.93-9.93,9.93-3.08,0-5-1.12-6-3.5a10.77,10.77,0,0,1,0-6q2.1-10.08,10.08-10.08t5.88,9.66M320,18.9c-2.1-3.5-6-5.18-11.89-5.18s-10.5,1.68-14.27,5.18a21.06,21.06,0,0,0-6.44,11.34c-1.12,5.32-.56,9.24,1.68,12q3.56,4.62,11.75,4.62c5.18,0,9.66-1.26,13.16-4.06a20.27,20.27,0,0,0,7.56-12.17c.84-4.76.42-8.68-1.54-11.76m-41.77-8h5.45a1.65,1.65,0,0,0,1.61-1.31l1.13-5.38a1.65,1.65,0,0,0-1.61-2h-5.45a1.65,1.65,0,0,0-1.61,1.31l-1.13,5.38a1.65,1.65,0,0,0,1.62,2m-7.69,35.41H276a1.65,1.65,0,0,0,1.61-1.3l6.16-28.89a1.65,1.65,0,0,0-1.61-2h-5.45a1.64,1.64,0,0,0-1.61,1.31L269,44.35a1.65,1.65,0,0,0,1.61,2m-18.13-6.86H246a7.19,7.19,0,0,1-4.76-1.54c-1.82-1.54-2.24-4.2-1.54-7.84a13.05,13.05,0,0,1,3.22-6.16,9.84,9.84,0,0,1,7-2.8h6.44Zm5.46-25.33h-8.26a18.22,18.22,0,0,0-10.5,3.08,19.91,19.91,0,0,0-8.25,12.87,18,18,0,0,0,0,8.68,10.34,10.34,0,0,0,7,7c1.4.56,3.78.7,6.72.7h13.74A1.87,1.87,0,0,0,260.17,45l8.58-40.36a1.86,1.86,0,0,0-1.82-2.25h-4.77A2.16,2.16,0,0,0,260,4.1Zm-44.5,25.33H205a3.11,3.11,0,0,1-2.8-1.12,4.6,4.6,0,0,1-.42-3.49l4-18.58a1.76,1.76,0,0,0-1.72-2.13h-5.21a1.76,1.76,0,0,0-1.72,1.4L193.24,34c-1.26,6.16,0,10.08,4.2,11.62a18.14,18.14,0,0,0,6.16.7h16.06a1.76,1.76,0,0,0,1.72-1.4l6-28.67a1.76,1.76,0,0,0-1.72-2.12H220.4a1.76,1.76,0,0,0-1.72,1.38ZM184.55,2.25h-6.63a1.13,1.13,0,0,0-1.1.9l-2.33,11H145.38c-3.5,0-6,.56-7.7,1.68a12.2,12.2,0,0,0-5.18,7.69,8.38,8.38,0,0,0,.42,5.88A6.3,6.3,0,0,0,137.4,33a18.81,18.81,0,0,0,4.76.42h5.32a10.5,10.5,0,0,1,3.78.42c1,.56,1.26,1.4,1,2.8a3.26,3.26,0,0,1-2.94,2.66H130.49a1.13,1.13,0,0,0-1.11.9l-.94,4.59a1.13,1.13,0,0,0,1.11,1.36h16.81a43.59,43.59,0,0,0,4.48-.14,10.22,10.22,0,0,0,6.85-3.5,15,15,0,0,0,3.36-6.44c.7-3.22,0-5.46-1.82-7s-4.06-2.24-7.42-2.24h-5.18c-2.38,0-3.78-.14-4.2-.56a2.19,2.19,0,0,1-1-2.52,3.25,3.25,0,0,1,2.1-2.66,16,16,0,0,1,3.5-.28h26l-2.8,13.29a17.33,17.33,0,0,0-.7,4.48,7.59,7.59,0,0,0,1.4,5.18c1.26,1.54,3.78,2.38,7.28,2.38h5.53a1.14,1.14,0,0,0,1.11-.88s1-4.69,1.16-5.16c0,0,.33-.81-.77-.81h-2.55c-2,0-3.22-.56-3.78-1.54-.28-.7-.14-2.38.42-5.18L181.76,21h7.33a1.13,1.13,0,0,0,1.11-.9l.94-4.6A1.13,1.13,0,0,0,190,14.15H183.3l2.35-10.52a1.13,1.13,0,0,0-1.11-1.38"/><path class="ðŸœ-main" fill="#2a3230" d="M135.69,4l-1,4.85a1.49,1.49,0,0,1-1.46,1.2H119.94l-6.9,35a1.49,1.49,0,0,1-1.46,1.2h-6.33a1.49,1.49,0,0,1-1.46-1.78l6.79-34.47H98.38a1.49,1.49,0,0,1-1.46-1.78l1-4.86a1.49,1.49,0,0,1,1.46-1.2h34.89A1.49,1.49,0,0,1,135.69,4M94.5,4l-8.1,41.1a1.49,1.49,0,0,1-1.46,1.2h-9.2a1.49,1.49,0,0,1-1.4-1L63,14,56.87,45.13a1.5,1.5,0,0,1-1.47,1.2H49.49A1.49,1.49,0,0,1,48,44.56l8.1-41.1a1.49,1.49,0,0,1,1.46-1.2h9.88a1.49,1.49,0,0,1,1.41,1l10.58,31.6L85.65,3.46a1.49,1.49,0,0,1,1.46-1.2H93A1.49,1.49,0,0,1,94.5,4M21.73,28.28l9.33-15.4,3.26,15.4Zm14.54-26H28.53A1.49,1.49,0,0,0,27.26,3L2.21,44.07a1.49,1.49,0,0,0,1.27,2.27H11a1.49,1.49,0,0,0,1.28-.72l5.77-9.5H34.88l1.94,9a1.49,1.49,0,0,0,1.46,1.18h6.86a1.49,1.49,0,0,0,1.46-1.81L37.73,3.43a1.49,1.49,0,0,0-1.46-1.18"/></svg>
