<svg class="ant-logo" version="1.1" xmlns="http://www.w3.org/2000/svg" viewBox="0 0 322 44.333" xml:space="preserve">
<g>
	<path fill="#fff" class="ant-logo-path-1" d="M312.474,28.204c-1.4,6.58-4.755,9.935-9.935,9.935c-3.078,0-5.04-1.118-6.02-3.496
		c-0.561-1.399-0.561-3.502,0-6.018c1.4-6.72,4.76-10.078,10.076-10.078C311.916,18.547,313.874,21.765,312.474,28.204
		 M320.03,17.006c-2.097-3.496-6.017-5.176-11.895-5.176c-5.737,0-10.496,1.68-14.271,5.176c-3.359,3.081-5.461,6.86-6.44,11.339
		c-1.119,5.316-0.561,9.237,1.682,12.033c2.376,3.081,6.299,4.622,11.753,4.622c5.18,0,9.656-1.26,13.155-4.061
		c3.92-3.077,6.438-6.997,7.557-12.174C322.412,24.007,321.99,20.087,320.03,17.006 M278.259,9.032h5.451
		c0.78,0,1.452-0.548,1.612-1.308l1.126-5.382c0.215-1.025-0.564-1.988-1.612-1.988h-5.451c-0.779,0-1.452,0.548-1.611,1.312
		l-1.13,5.382C276.431,8.07,277.212,9.032,278.259,9.032 M270.566,44.438h5.447c0.777,0,1.449-0.542,1.612-1.306l6.156-28.892
		c0.218-1.024-0.565-1.99-1.609-1.99h-5.451c-0.776,0-1.445,0.541-1.608,1.305l-6.156,28.891
		C268.739,43.472,269.519,44.438,270.566,44.438 M252.436,37.582h-6.433c-1.962,0-3.639-0.562-4.759-1.54
		c-1.821-1.539-2.242-4.199-1.54-7.838c0.558-2.517,1.681-4.479,3.218-6.159c1.958-1.818,4.2-2.797,6.998-2.797h6.439
		L252.436,37.582z M257.896,12.251h-8.258c-4.196,0-7.556,1.119-10.497,3.081c-4.337,3.077-7.134,7.275-8.254,12.872
		c-0.702,3.358-0.702,6.159,0,8.675c1.12,3.499,3.496,5.879,6.995,7.001c1.399,0.559,3.782,0.699,6.72,0.699h13.744
		c0.881,0,1.639-0.617,1.824-1.479l8.581-40.356c0.248-1.159-0.637-2.249-1.818-2.249h-4.774c-1.019,0-1.896,0.712-2.109,1.707
		L257.896,12.251z M213.394,37.582h-8.396c-1.397,0-2.377-0.422-2.799-1.124c-0.561-0.838-0.7-1.955-0.42-3.495l4.018-18.581
		c0.238-1.097-0.598-2.131-1.72-2.131h-5.21c-0.831,0-1.549,0.58-1.723,1.397l-3.9,18.473c-1.259,6.158,0,10.078,4.198,11.619
		c1.399,0.558,3.498,0.698,6.158,0.698h16.062c0.832,0,1.553-0.584,1.723-1.399l5.982-28.667c0.229-1.093-0.607-2.121-1.724-2.121
		h-5.237c-0.826,0-1.541,0.574-1.717,1.38L213.394,37.582z M184.552,0.354h-6.629c-0.532,0-0.992,0.375-1.103,0.898l-2.331,10.999
		h-10.215h-2.661h-16.231c-3.502,0-6.019,0.558-7.699,1.681c-2.798,1.958-4.478,4.477-5.18,7.692
		c-0.558,2.102-0.418,4.201,0.421,5.878c0.839,1.822,2.242,3.081,4.478,3.639c0.979,0.281,2.52,0.422,4.758,0.422h5.317
		c1.962,0,3.222,0.141,3.78,0.418c0.979,0.562,1.26,1.403,0.979,2.804c-0.421,1.537-1.397,2.516-2.938,2.657h-3.916H130.49
		c-0.539,0-0.999,0.378-1.11,0.903l-0.936,4.596c-0.144,0.698,0.391,1.357,1.109,1.357h16.806c1.681,0,3.221,0,4.481-0.14
		c2.657-0.278,5.039-1.4,6.854-3.499c1.681-1.959,2.804-4.061,3.359-6.438c0.701-3.221,0-5.456-1.819-6.997
		c-1.677-1.399-4.056-2.238-7.418-2.238h-5.177c-2.379,0-3.779-0.142-4.197-0.559c-0.842-0.562-1.26-1.404-0.979-2.522
		c0.277-1.397,0.979-2.236,2.099-2.657c0.561-0.14,1.681-0.28,3.499-0.28h13.016h2.656h10.356l-2.797,13.292
		c-0.561,2.103-0.698,3.499-0.698,4.479c-0.14,2.102,0.418,3.92,1.396,5.18c1.26,1.54,3.779,2.379,7.278,2.379h5.529
		c0.529,0,0.989-0.369,1.106-0.883c0,0,1.048-4.688,1.158-5.162c0,0,0.334-0.812-0.77-0.812h-2.546c-1.962,0-3.218-0.562-3.78-1.541
		c-0.28-0.698-0.14-2.379,0.421-5.181l2.377-11.612h7.333c0.539,0,1.002-0.379,1.11-0.904l0.937-4.596
		c0.144-0.701-0.392-1.357-1.109-1.357h-6.73l2.353-10.517C185.815,1.026,185.277,0.354,184.552,0.354"/>
	<path fill="#fff" class="ant-logo-path-2" d="M135.688,2.135l-0.956,4.853c-0.137,0.699-0.751,1.205-1.462,1.205h-13.33l-6.903,35.043
		c-0.137,0.698-0.75,1.2-1.465,1.2h-6.335c-0.94,0-1.645-0.856-1.462-1.777l6.788-34.466h-12.18c-0.94,0-1.645-0.859-1.462-1.779
		l0.956-4.857c0.137-0.698,0.751-1.201,1.462-1.201h34.887C135.164,0.356,135.872,1.211,135.688,2.135 M94.497,2.135l-8.098,41.102
		c-0.137,0.698-0.751,1.2-1.462,1.2h-9.201c-0.63,0-1.188-0.392-1.403-0.983L63.004,12.112l-6.129,31.125
		c-0.141,0.698-0.754,1.2-1.466,1.2h-5.917c-0.94,0-1.645-0.856-1.462-1.777l8.097-41.102c0.137-0.698,0.751-1.201,1.462-1.201
		h9.877c0.639,0,1.21,0.408,1.413,1.018l10.584,31.604l6.192-31.42c0.137-0.698,0.751-1.201,1.462-1.201h5.917
		C93.974,0.356,94.679,1.211,94.497,2.135 M21.729,26.385l9.331-15.395l3.264,15.395H21.729z M36.27,0.356h-7.735
		c-0.519,0-1.002,0.271-1.273,0.715L2.206,42.172c-0.608,0.993,0.107,2.265,1.269,2.265h7.562c0.523,0,1.006-0.27,1.277-0.718
		l5.773-9.498H34.88l1.935,9.038c0.147,0.688,0.754,1.178,1.456,1.178h6.864c0.949,0,1.658-0.878,1.459-1.805L37.729,1.531
		C37.579,0.846,36.972,0.356,36.27,0.356"/>
</g>
</svg>
