<!-- Generated by IcoMoon.io -->
<svg version="1.1" xmlns="http://www.w3.org/2000/svg" width="2037" height="1024" viewBox="0 0 2037 1024">
<title></title>
<g id="icomoon-ignore">
</g>
<path fill="#fff" d="M460.976 633.402h-344.852c-64.044 0-116.124-52.080-116.124-116.124s52.080-116.124 116.124-116.124h344.852c64.044 0 116.124 52.080 116.124 116.124s-52.080 116.124-116.124 116.124zM116.124 408.192c-60.138 0-109.086 48.948-109.086 109.086s48.948 109.086 109.086 109.086h344.852c60.138 0 109.086-48.948 109.086-109.086s-48.948-109.086-109.086-109.086h-344.852z"></path>
<path fill="#fff" d="M1537.759 633.402h-714.337c-64.044 0-116.124-52.080-116.124-116.124s52.080-116.124 116.124-116.124h714.337c64.044 0 116.124 52.080 116.124 116.124s-52.080 116.124-116.124 116.124zM823.423 408.192c-60.138 0-109.086 48.948-109.086 109.086s48.948 109.086 109.086 109.086h714.337c60.138 0 109.086-48.948 109.086-109.086s-48.948-109.086-109.086-109.086h-714.337z"></path>
<path fill="#fff" d="M844.536 232.247h-358.928c-64.044 0-116.124-52.080-116.124-116.124s52.080-116.124 116.124-116.124h358.928c64.044 0 116.124 52.080 116.124 116.124s-52.080 116.124-116.124 116.124zM485.608 7.038c-60.138 0-109.086 48.948-109.086 109.086s48.948 109.086 109.086 109.086h358.928c60.138 0 109.086-48.948 109.086-109.086s-48.948-109.086-109.086-109.086h-358.928z"></path>
<path fill="#fff" d="M1228.096 232.247h-28.151c-64.044 0-116.124-52.080-116.124-116.124s52.080-116.124 116.124-116.124h28.151c64.044 0 116.124 52.080 116.124 116.124s-52.080 116.124-116.124 116.124zM1199.945 7.038c-60.138 0-109.086 48.948-109.086 109.086s48.948 109.086 109.086 109.086h28.151c60.138 0 109.086-48.948 109.086-109.086s-48.948-109.086-109.086-109.086h-28.151z"></path>
<path fill="#fff" d="M1361.814 1024h-714.337c-64.044 0-116.124-52.080-116.124-116.124s52.080-116.124 116.124-116.124h714.337c64.044 0 116.124 52.080 116.124 116.124s-52.080 116.124-116.124 116.124zM647.478 798.79c-60.138 0-109.086 48.948-109.086 109.086s48.948 109.086 109.086 109.086h714.337c60.138 0 109.086-48.948 109.086-109.086s-48.948-109.086-109.086-109.086h-714.337z"></path>
<path fill="#fff" d="M292.069 1024h-38.708c-64.044 0-116.124-52.080-116.124-116.124s52.080-116.124 116.124-116.124h38.708c64.044 0 116.124 52.080 116.124 116.124s-52.080 116.124-116.124 116.124zM253.361 798.79c-60.138 0-109.086 48.948-109.086 109.086s48.948 109.086 109.086 109.086h38.708c60.138 0 109.086-48.948 109.086-109.086s-48.948-109.086-109.086-109.086h-38.708z"></path>
<path fill="#fff" d="M1752.412 1024h-35.189c-64.044 0-116.124-52.080-116.124-116.124s52.080-116.124 116.124-116.124h35.189c64.044 0 116.124 52.080 116.124 116.124s-52.080 116.124-116.124 116.124zM1717.223 798.79c-60.138 0-109.086 48.948-109.086 109.086s48.948 109.086 109.086 109.086h35.189c60.138 0 109.086-48.948 109.086-109.086s-48.948-109.086-109.086-109.086h-35.189z"></path>
<path fill="#fff" d="M1921.32 232.247h-341.333c-64.044 0-116.124-52.080-116.124-116.124s52.080-116.124 116.124-116.124h341.333c64.044 0 116.124 52.080 116.124 116.124s-52.080 116.124-116.124 116.124zM1579.986 7.038c-60.138 0-109.086 48.948-109.086 109.086s48.948 109.086 109.086 109.086h341.333c60.138 0 109.086-48.948 109.086-109.086s-48.948-109.086-109.086-109.086h-341.333z"></path>
</svg>
