<svg id="43a5fcfc-baab-417a-be1d-fbb4e49d04c6" data-name="Vrstva 1" xmlns="http://www.w3.org/2000/svg" xmlns:xlink="http://www.w3.org/1999/xlink" viewBox="0 0 415.23 1567.9"><defs><linearGradient id="f982c890-e14d-4f70-bace-8d721a00ef1f" x1="24.5" y1="803.99" x2="275.07" y2="803.99" gradientTransform="matrix(1, 0, 0, -1, 0, 1589.91)" gradientUnits="userSpaceOnUse"><stop offset="0" stop-color="#a7a0a5"/><stop offset="0.52" stop-color="#fff" stop-opacity="0.91"/><stop offset="1" stop-color="#a6a0a6"/></linearGradient><linearGradient id="479a2a7b-923b-4af0-8819-cd81cc7d53b5" x1="49.96" y1="806.77" x2="319.34" y2="806.77" xlink:href="#f982c890-e14d-4f70-bace-8d721a00ef1f"/><linearGradient id="dbba9a3e-4f6b-4dc6-90b4-73f30db4e3dc" x1="73.83" y1="815.28" x2="360.57" y2="815.28" xlink:href="#f982c890-e14d-4f70-bace-8d721a00ef1f"/><linearGradient id="929c046d-412c-40b5-9f3f-21602c70fee8" x1="97.29" y1="814.19" x2="415.23" y2="814.19" xlink:href="#f982c890-e14d-4f70-bace-8d721a00ef1f"/><linearGradient id="69500718-26f0-4ee0-acef-ad996d147e55" x1="0" y1="812.15" x2="237.4" y2="812.15" xlink:href="#f982c890-e14d-4f70-bace-8d721a00ef1f"/></defs><title>light</title><g opacity="0.6"><path d="M105.24,1567.9a3,3,0,0,1-2.86-2.1c-.59-1.88-1.18-3.8-1.78-5.78a3,3,0,1,1,5.75-1.72q.89,2.92,1.75,5.69a3,3,0,0,1-2.86,3.9Zm-6-21.16a3,3,0,0,1-2.9-2.26c-1.75-6.82-3.32-13.76-4.69-20.63a3,3,0,0,1,5.84-1.41,2,2,0,0,1,0,.24c1.35,6.77,2.9,13.61,4.62,20.32a3,3,0,0,1-2.15,3.65,2.78,2.78,0,0,1-.76.1Zm-6.32-29.32a3,3,0,0,1-3-2.48c-.34-2-.68-4-1-6a3,3,0,1,1,5.93-.94c.32,2,.65,4,1,5.87a3,3,0,0,1-2.44,3.47,3.08,3.08,0,0,1-.53.08Zm-3-20.78a3,3,0,0,1-3-2.65q-.34-3-.67-6a3,3,0,1,1,6-.61q.31,3,.65,5.92a3,3,0,0,1-2.62,3.33Zm-2-21.91a3,3,0,0,1-3-2.82c-.42-7-.63-14.16-.64-21.16a3,3,0,0,1,3-3h0a3,3,0,0,1,3,3c0,6.89.22,13.89.63,20.82a3,3,0,0,1-2.82,3.17h-.17Zm-.53-30H87.3a3,3,0,0,1-2.93-3.07h0q.07-3,.19-6.05a3,3,0,0,1,6,.24h0q-.12,3-.19,6a3,3,0,0,1-3.07,2.9Zm1.11-21h-.25a3,3,0,0,1-2.74-3.24h0q.26-3,.55-6a3,3,0,0,1,6,.6h0c-.2,2-.38,4-.54,5.93a3,3,0,0,1-3.06,2.75ZM91,1401.87a3,3,0,0,1-3-3,3.44,3.44,0,0,1,0-.46q.87-6,2-12c.53-2.94,1.11-5.91,1.72-8.84a3,3,0,1,1,5.88,1.22c-.6,2.88-1.16,5.8-1.69,8.69-.71,3.91-1.36,7.88-1.93,11.81a3,3,0,0,1-3,2.64Zm5.58-29.47a3.16,3.16,0,0,1-.68-.08,3,3,0,0,1-2.24-3.6q.69-3,1.43-5.88a3,3,0,0,1,5.82,1.46c-.48,1.9-.94,3.83-1.4,5.78a3,3,0,0,1-3,2.37Zm5.37-20.3a3,3,0,0,1-2.88-3.85q.87-2.94,1.76-5.79a3,3,0,0,1,5.72,1.8c-.58,1.88-1.16,3.77-1.73,5.69a3,3,0,0,1-2.91,2.2Zm6.86-20.9a3,3,0,0,1-2.82-4c2.37-6.56,5-13.19,7.74-19.7a3,3,0,1,1,5.61,2.12.85.85,0,0,1-.09.22c-2.72,6.41-5.28,12.94-7.62,19.39a3,3,0,0,1-2.85,2Zm11.28-27.79a3,3,0,0,1-2.73-4.23c.84-1.87,1.69-3.7,2.53-5.49a3,3,0,0,1,5.43,2.55q-1.25,2.65-2.49,5.41a3,3,0,0,1-2.77,1.81Zm9.12-18.92a3,3,0,0,1-3-3,3.07,3.07,0,0,1,.33-1.37c.94-1.84,1.88-3.62,2.8-5.36a3,3,0,0,1,5.3,2.81q-1.37,2.58-2.76,5.28a3,3,0,0,1-2.69,1.69Zm10.52-19.33a3,3,0,0,1-3-3,3,3,0,0,1,.39-1.48c3.26-5.69,6.22-10.6,8.73-14.76.67-1.16,1.36-2.28,2.06-3.37a3,3,0,0,1,5.11,3.15c-.66,1.08-1.33,2.19-2,3.33-2.49,4.13-5.43,9-8.66,14.64a3,3,0,0,1-2.67,1.55Zm15.54-25.65a3,3,0,0,1-2.51-4.64q1.73-2.64,3.34-5a3,3,0,1,1,5,3.37c-1.06,1.56-2.16,3.21-3.28,4.94a3,3,0,0,1-2.57,1.38Zm12-17.09a3,3,0,0,1-2.38-4.83c1.23-1.6,2.46-3.16,3.76-4.76a3,3,0,0,1,4.66,3.78h0c-1.27,1.56-2.47,3.08-3.66,4.64A3,3,0,0,1,167.3,1222.42Zm14.11-16.81a3,3,0,0,1-2.24-5l.7-.79c4.06-4.56,8.26-9.28,12.8-15a3,3,0,1,1,4.7,3.73c-4.65,5.86-8.9,10.64-13,15.27l-.7.79a3,3,0,0,1-2.26,1Zm19.06-23.08a3,3,0,0,1-2.42-4.77c1.15-1.56,2.3-3.18,3.44-4.81a3,3,0,1,1,4.92,3.44c-1.17,1.67-2.35,3.33-3.52,4.93a3,3,0,0,1-2.42,1.21Zm11.77-17.35a3,3,0,0,1-3-3,3.15,3.15,0,0,1,.47-1.61l3.22-5.06a3,3,0,1,1,5.07,3.21l-3.23,5.07a3,3,0,0,1-2.53,1.39Zm11.66-18.67a3,3,0,0,1-3-3,3.1,3.1,0,0,1,.43-1.58c3.81-6.31,7.22-12.23,10.42-18.09a3,3,0,1,1,5.27,2.88c-3.24,5.94-6.69,11.93-10.55,18.32a3,3,0,0,1-2.54,1.44Zm14.71-26.15a3,3,0,0,1-3-3A3,3,0,0,1,236,1116q1.35-2.62,2.7-5.31a3,3,0,0,1,5.37,2.67c-.9,1.82-1.82,3.62-2.74,5.39a3,3,0,0,1-2.67,1.63Zm9.12-18.92a3,3,0,0,1-2.74-4.22q1.2-2.7,2.37-5.46a3,3,0,1,1,5.61,2.12.85.85,0,0,1-.09.22q-1.19,2.81-2.42,5.55a3,3,0,0,1-2.73,1.79Zm8.27-20.39a3,3,0,0,1-2.82-4c2.4-6.58,4.56-13.23,6.41-19.76a3,3,0,0,1,5.77,1.64c-1.89,6.67-4.1,13.46-6.55,20.18a3,3,0,0,1-2.81,2Zm8.8-28.67a3,3,0,0,1-3-3,3.36,3.36,0,0,1,.08-.71c.48-1.93.94-3.87,1.36-5.77a3,3,0,1,1,5.86,1.31c-.43,2-.9,3.93-1.39,5.91a3,3,0,0,1-2.92,2.28Zm4.22-20.57a3,3,0,0,1-3-3,3,3,0,0,1,0-.52c.32-1.95.61-3.92.88-5.86a3,3,0,1,1,6,.56,1.87,1.87,0,0,1,0,.25q-.4,3-.9,6a3,3,0,0,1-2.92,2.54Zm2.52-21.84h-.24a3,3,0,0,1-2.79-3.2h0c.36-5.24.55-10.55.55-15.77,0-1.64,0-3.29-.05-4.94a3,3,0,1,1,6-.13h0q.06,2.55.06,5.07c0,5.36-.19,10.81-.56,16.19a3,3,0,0,1-3,2.77Zm.12-30a3,3,0,0,1-3-2.82q-.12-2-.27-3.93c-.05-.67-.1-1.34-.16-2a3,3,0,1,1,6-.53c.06.66.12,1.33.17,2,.11,1.33.2,2.66.28,4a3,3,0,0,1-2.81,3.18h0Zm-2.24-20.87a3,3,0,0,1-3-2.55c-.3-1.94-.62-3.9-1-5.85a3,3,0,1,1,5.91-1.05c.35,2,.69,4,1,6a3,3,0,0,1-2.51,3.41,2.63,2.63,0,0,1-.49,0Zm-4.3-21.57a3,3,0,0,1-2.91-2.28c-1.63-6.61-3.57-13.31-5.77-19.94a3,3,0,0,1,5.69-1.89c2.25,6.78,4.24,13.64,5.9,20.4a3,3,0,0,1-2.92,3.72ZM256.3,908.9a3,3,0,0,1-2.82-2c-.66-1.87-1.37-3.72-2.11-5.55a3,3,0,1,1,5.59-2.19q1.11,2.79,2.16,5.67a3,3,0,0,1-1.82,3.83,3,3,0,0,1-1,.17Zm-8-19.43a3,3,0,0,1-2.74-1.77q-1.23-2.73-2.49-5.39a3,3,0,0,1,5.37-2.7.69.69,0,0,1,.05.13c.86,1.8,1.71,3.64,2.54,5.5a3,3,0,0,1-1.5,4,2.9,2.9,0,0,1-1.23.27Zm-9.72-19.74a3,3,0,0,1-2.65-1.59c-3.19-6-6.67-12.06-10.35-18.08a3,3,0,0,1,5.12-3.12c3.73,6.13,7.27,12.31,10.52,18.38a3,3,0,0,1-1.23,4.06,3.16,3.16,0,0,1-1.41.35Zm-15.2-25.87a3,3,0,0,1-2.53-1.38c-1.09-1.72-2.17-3.38-3.25-5a3,3,0,0,1,4.82-3.58,1.67,1.67,0,0,1,.18.28q1.64,2.46,3.3,5.07a3,3,0,0,1-2.52,4.62Zm-11.73-17.43a3,3,0,0,1-2.46-1.27c-1.19-1.7-2.34-3.33-3.46-4.87a3,3,0,0,1,4.88-3.49c1.12,1.56,2.29,3.2,3.49,4.92a3,3,0,0,1-2.45,4.73Zm-12.93-17.8a3,3,0,0,1-2.38-1.17c-4.8-6.26-8.33-10.28-12.07-14.53L183,791.52a3,3,0,1,1,4.51-4h0l1.24,1.41c3.81,4.33,7.4,8.42,12.33,14.84a3,3,0,0,1-2.38,4.83Zm-19.29-22.92a3,3,0,0,1-2.31-1.08c-1.29-1.56-2.54-3.1-3.82-4.71a3,3,0,1,1,4.7-3.73c1.25,1.57,2.47,3.08,3.73,4.6a3,3,0,0,1-2.31,4.92ZM166.59,769.1a3,3,0,0,1-2.43-1.24q-1.75-2.43-3.52-4.92a3,3,0,1,1,4.91-3.45q1.74,2.46,3.46,4.84a3,3,0,0,1-2.42,4.76ZM154.19,751a3,3,0,0,1-2.52-1.37c-3.8-5.88-7.51-12-11-18.05a3,3,0,1,1,5.2-3c3.47,6,7.13,12,10.88,17.8a3,3,0,0,1-.88,4.15,3.08,3.08,0,0,1-1.64.48Zm-15.37-25.77a3,3,0,0,1-2.63-1.56c-1-1.76-1.92-3.54-2.87-5.32a3,3,0,0,1,5.3-2.82c.94,1.76,1.88,3.5,2.83,5.24a3,3,0,0,1-2.63,4.45Zm-9.65-18.66a3,3,0,0,1-2.7-1.69c-.88-1.81-1.74-3.63-2.6-5.46a3,3,0,1,1,5.44-2.54c.84,1.8,1.7,3.6,2.56,5.38a3,3,0,0,1-1.39,4,3.07,3.07,0,0,1-1.31.3Zm-9.06-20a3,3,0,0,1-2.77-1.84c-2.76-6.59-5.32-13.24-7.62-19.77a3,3,0,0,1,5.66-2c2.26,6.43,4.79,13,7.5,19.45a3,3,0,0,1-1.6,3.92,3,3,0,0,1-1.17.24Zm-10.44-28.15a3,3,0,0,1-2.85-2.08q-.93-2.88-1.81-5.78a3,3,0,1,1,5.7-1.89s0,.1,0,.15q.87,2.85,1.78,5.68a3,3,0,0,1-1.93,3.77,2.91,2.91,0,0,1-.92.15Zm-5.8-20.19a3,3,0,0,1-2.91-2.27c-.49-2-1-3.93-1.42-5.89a3,3,0,1,1,5.85-1.34c.45,1.92.91,3.85,1.39,5.77a3,3,0,0,1-2.18,3.64h0a3.64,3.64,0,0,1-.74,0ZM99.3,616.62a3,3,0,0,1-3-2.5c-1.21-7.1-2.11-14.19-2.69-21.07a3,3,0,0,1,6-.5c.57,6.72,1.45,13.64,2.63,20.57a3,3,0,0,1-2.45,3.46h0A3.88,3.88,0,0,1,99.3,616.62Zm-3.24-29.79a3,3,0,0,1-3-2.87c-.09-2-.15-4.07-.19-6.07a3,3,0,1,1,6-.1h0c0,2,.09,3.93.18,5.91a3,3,0,0,1-2.86,3.13Zm.1-21H96a3,3,0,0,1-2.83-3.16c.11-2,.26-4.09.43-6.08a3,3,0,1,1,6,.52h0c-.17,1.93-.31,3.91-.42,5.89a3,3,0,0,1-3,2.85ZM98.67,544h-.52a3,3,0,0,1-2.44-3.47A175,175,0,0,1,100.58,520l.09-.3a3,3,0,1,1,5.79,1.59.88.88,0,0,1,0,.15l-.09.3a169.24,169.24,0,0,0-4.7,19.75A3,3,0,0,1,98.67,544ZM106.39,515a3,3,0,0,1-2.82-4c.69-1.91,1.43-3.82,2.18-5.69a3,3,0,0,1,5.66,2,1.86,1.86,0,0,1-.1.25c-.73,1.81-1.44,3.66-2.11,5.5a3,3,0,0,1-2.81,2Zm8.34-19.24a3,3,0,0,1-2.67-4.36c.91-1.79,1.86-3.61,2.84-5.39a3,3,0,1,1,5.36,2.71l-.1.17c-1,1.73-1.87,3.48-2.75,5.22a3,3,0,0,1-2.68,1.69Zm11-19a3,3,0,0,1-2.5-4.65c3.7-5.62,7.77-11.25,12.44-17.21a3,3,0,1,1,4.83,3.56,1.34,1.34,0,0,1-.11.14c-4.57,5.83-8.54,11.33-12.15,16.81a3,3,0,0,1-2.46,1.4Zm17.94-24a3,3,0,0,1-2.31-4.91c1.29-1.56,2.58-3.11,3.88-4.63a3,3,0,0,1,4.58,3.88c-1.28,1.5-2.55,3-3.83,4.57a3,3,0,0,1-2.27,1.12Zm13.68-15.94a3,3,0,0,1-2.25-5l4-4.51a3,3,0,1,1,4.51,4h0l-4,4.5a3,3,0,0,1-2.22,1.05Zm14.43-16.61a3,3,0,0,1-2.29-4.93c5.24-6.15,9.29-11.34,12.81-16.34a3,3,0,0,1,4.91,3.45c-3.59,5.11-7.74,10.44-13.06,16.77a3,3,0,0,1-2.33,1.09Zm17.84-24.07a3,3,0,0,1-3-3,3,3,0,0,1,.44-1.56c1-1.69,2-3.39,2.93-5a3,3,0,0,1,5.36,2.71l-.1.17c-1,1.75-2,3.54-3.08,5.31a3,3,0,0,1-2.52,1.47Zm9.22-18.8a3,3,0,0,1-2.82-4c.66-1.82,1.27-3.67,1.79-5.5a3,3,0,1,1,5.77,1.66h0c-.57,2-1.21,3.94-1.92,5.89a3,3,0,0,1-2.78,2ZM203.65,356h-.28a3,3,0,0,1-2.71-3.26c.23-2.55.35-5.18.35-7.81,0-2.44-.1-5-.31-7.48-.13-1.65-.31-3.32-.53-5a3,3,0,1,1,6-.78c.23,1.75.42,3.52.56,5.27.22,2.68.33,5.36.33,8,0,2.81-.13,5.62-.38,8.36a3,3,0,0,1-2.95,2.74Zm-2.07-29.78a3,3,0,0,1-2.93-2.35c-.42-1.88-.9-3.78-1.42-5.66a3,3,0,1,1,5.78-1.62q.84,3,1.5,6a3,3,0,0,1-2.28,3.58,3.5,3.5,0,0,1-.65.07Zm-6.41-20a3,3,0,0,1-2.77-1.84c-.74-1.77-1.54-3.57-2.38-5.36a3,3,0,0,1,5.43-2.55c.88,1.86,1.71,3.75,2.49,5.59a3,3,0,0,1-1.6,3.92,3,3,0,0,1-1.17.24Zm-9.87-19.51a3,3,0,0,1-2.59-1.48c-3.29-5.57-7-11.24-11.35-17.34a3,3,0,1,1,4.84-3.55l0,.06c4.45,6.24,8.26,12.05,11.64,17.78a3,3,0,0,1-1,4.11,3,3,0,0,1-1.53.42ZM168.48,261.9a3,3,0,0,1-2.4-1.19q-1.77-2.35-3.65-4.75a3,3,0,0,1,4.73-3.69c1.26,1.6,2.48,3.2,3.68,4.79a3,3,0,0,1-2.39,4.81Zm-13.09-16.44a3,3,0,0,1-2.31-1.09c-1.25-1.52-2.53-3-3.83-4.58a3,3,0,1,1,4.59-3.87h0q2,2.33,3.87,4.63a3,3,0,0,1-.4,4.22,3,3,0,0,1-1.91.69ZM141.1,228.73a3,3,0,0,1-2.26-1c-4.1-4.68-8.65-9.8-13.93-15.66a3,3,0,0,1,4.24-4.25,2.62,2.62,0,0,1,.22.25c5.3,5.88,9.87,11,14,15.72a3,3,0,0,1-.23,4.23,3,3,0,0,1-2,.77Zm-20-22.36a3,3,0,0,1-2.22-1l-4-4.44a3,3,0,0,1,4.09-4.4,2.23,2.23,0,0,1,.35.4l4,4.44a3,3,0,0,1-.23,4.23A3,3,0,0,1,121.1,206.37ZM107,190.84a3,3,0,0,1-2.22-1q-2-2.25-4-4.39a3,3,0,0,1,4.4-4.08l4.08,4.43A3,3,0,0,1,109,190a3,3,0,0,1-2,.77Zm-15.09-16a3,3,0,0,1-2.15-.91C84.37,168.4,79.27,163.3,75,159a3,3,0,1,1,4.08-4.4l.15.15c4.29,4.28,9.41,9.4,14.8,15a3,3,0,0,1-2.15,5.09ZM70.75,153.56a3,3,0,0,1-2.12-.87l-4.25-4.24a3,3,0,1,1,4.25-4.24l4.24,4.23a3,3,0,0,1-2.12,5.13ZM56,138.61a3,3,0,0,1-2.17-.93c-1.42-1.5-2.79-3-4.13-4.43a3,3,0,0,1,4.43-4q2,2.13,4,4.34A3,3,0,0,1,56,138.66ZM41.63,122a3,3,0,0,1-2.4-1.19A81.83,81.83,0,0,1,28.3,102.05a3,3,0,0,1,5.56-2.28v0A76.18,76.18,0,0,0,44,117.19,3,3,0,0,1,41.63,122Zm-13.2-26.6A3,3,0,0,1,25.51,93a59.83,59.83,0,0,1-1-6.23,3,3,0,1,1,6-.66,52.79,52.79,0,0,0,.93,5.58,3,3,0,0,1-2.28,3.58,3.5,3.5,0,0,1-.65.07Zm-.74-20.85h-.41a3,3,0,0,1-2.56-3.38c.28-2,.67-4.12,1.14-6.17a3,3,0,0,1,5.89,1.15,1.6,1.6,0,0,1-.05.21,48.38,48.38,0,0,0-1,5.62,3,3,0,0,1-3,2.58Zm6.42-20.94a3,3,0,0,1-2.71-4.29A104.11,104.11,0,0,1,42.77,31a3,3,0,1,1,4.77,3.64h0A98.09,98.09,0,0,0,36.82,51.86,3,3,0,0,1,34.11,53.57ZM50.86,28.8a3,3,0,0,1-2.25-5c1.32-1.5,2.71-3,4.13-4.52a3,3,0,1,1,4.35,4.14c-1.37,1.44-2.71,2.9-4,4.34A3,3,0,0,1,50.86,28.8ZM65.72,14a3,3,0,0,1-2-5.24c1.48-1.31,3-2.65,4.61-4a3,3,0,1,1,4,4.47l-.14.12c-1.54,1.29-3,2.59-4.48,3.87A3,3,0,0,1,65.72,14Z" fill="url(#f982c890-e14d-4f70-bace-8d721a00ef1f)"/></g><g opacity="0.6"><path d="M166.59,1563.2a3,3,0,0,1-2.7-1.69q-1.27-2.64-2.59-5.48a3,3,0,0,1,5.45-2.51c.86,1.85,1.7,3.64,2.54,5.37a3,3,0,0,1-1.39,4,3.07,3.07,0,0,1-1.31.3Zm-8.83-20.15a3,3,0,0,1-2.79-1.91c-2.58-6.59-4.93-13.34-7-20a3,3,0,1,1,5.74-1.75c2,6.56,4.3,13.16,6.83,19.61a3,3,0,0,1-1.69,3.89,3,3,0,0,1-1.1.21Zm-9.4-28.48a3,3,0,0,1-2.9-2.22c-.52-1.94-1-3.92-1.51-5.88a3,3,0,1,1,5.83-1.43c.47,1.92,1,3.85,1.48,5.75a3,3,0,0,1-2.9,3.78Zm-4.65-20.47a3,3,0,0,1-3-2.45c-.37-2-.72-4-1-6a3,3,0,1,1,5.92-1c.31,1.94.66,3.91,1,5.84a3,3,0,0,1-2.39,3.5h0a3.39,3.39,0,0,1-.57.1Zm-3.09-21.78a3,3,0,0,1-3-2.71c-.69-7-1.1-14.16-1.21-21.21a3,3,0,0,1,6,0c.11,6.88.51,13.85,1.19,20.71a3,3,0,0,1-2.69,3.28Zm-1.18-30h-.06a3,3,0,0,1-2.94-3.06h0c0-2,.1-4.06.19-6.07a3,3,0,1,1,6,.26c-.08,2-.15,4-.19,5.92a3,3,0,0,1-3,3h0Zm1.29-21h-.31a3,3,0,0,1-2.68-3.29h0q.31-3,.7-6a3,3,0,0,1,6,.76c-.25,2-.48,3.94-.68,5.89a3,3,0,0,1-3,2.73Zm3.23-21.75a3,3,0,0,1-3-3,3.66,3.66,0,0,1,0-.57c1.33-6.86,3-13.81,4.88-20.67a3,3,0,1,1,5.78,1.61c-1.87,6.7-3.47,13.5-4.77,20.19a3,3,0,0,1-3,2.52Zm7.38-29.06a3,3,0,0,1-2.86-3.9c.62-1.95,1.24-3.87,1.88-5.76a3,3,0,0,1,5.76,1.7c0,.08-.05.15-.08.22-.62,1.86-1.24,3.74-1.84,5.64a3,3,0,0,1-2.9,2.19Zm7-19.79a3,3,0,0,1-3-3,3.16,3.16,0,0,1,.21-1.1q1.13-2.85,2.27-5.61a3,3,0,0,1,5.6,2.17l-.06.13q-1.12,2.7-2.23,5.51a3,3,0,0,1-2.83,2Zm8.69-20.21a3,3,0,0,1-2.72-4.26c3.35-7.23,6.71-13.93,9.26-19a3,3,0,0,1,5.44,2.54l-.09.17c-2.53,5-5.85,11.64-9.17,18.78a3,3,0,0,1-2.72,1.86Zm13.27-26.79a3,3,0,0,1-3-3,3,3,0,0,1,.34-1.39c1-1.84,1.91-3.61,2.85-5.33a3,3,0,0,1,5.27,2.87h0q-1.38,2.54-2.8,5.24A3,3,0,0,1,180.3,1303.72Zm10.31-18.26a3,3,0,0,1-2.56-4.57c1.07-1.75,2.16-3.47,3.23-5.13a3,3,0,0,1,5,3.26c-1,1.62-2.11,3.3-3.15,5a3,3,0,0,1-2.48,1.43Zm12.33-18.16a3,3,0,0,1-2.39-4.81c5-6.65,9.85-12.22,13.5-16.33a3,3,0,1,1,4.49,4h0c-3.57,4-8.31,9.48-13.2,16a3,3,0,0,1-2.35,1.14Zm19.36-22.83a3,3,0,0,1-2.22-5l4-4.44a3,3,0,0,1,4.47,4l-4,4.46A3,3,0,0,1,222.3,1244.47Zm13.78-15.79a3,3,0,0,1-2.32-4.9c1.26-1.54,2.51-3.09,3.71-4.62a3,3,0,0,1,4.72,3.7c-1.22,1.56-2.5,3.15-3.79,4.72a3,3,0,0,1-2.28,1.1Zm13.22-17.54a3,3,0,0,1-2.47-4.7c3.77-5.47,7.43-11.19,11.19-17.49a3,3,0,0,1,5.27,2.87,2.12,2.12,0,0,1-.12.2c-3.83,6.42-7.56,12.25-11.41,17.82A3,3,0,0,1,249.3,1211.14Zm15.85-25.42a3,3,0,0,1-2.59-4.5l3-5.19a3,3,0,1,1,5.22,3q-1.54,2.73-3,5.23a3,3,0,0,1-2.61,1.46Zm10.2-18.37a3,3,0,0,1-3-3,3.07,3.07,0,0,1,.34-1.39c.91-1.72,1.83-3.49,2.75-5.29a3,3,0,0,1,5.34,2.73q-1.4,2.74-2.78,5.36a3,3,0,0,1-2.64,1.6Zm9.76-19.72a3,3,0,0,1-2.72-4.26c2.93-6.36,5.69-12.81,8.19-19.16a3,3,0,0,1,5.58,2.2c-2.54,6.46-5.34,13-8.32,19.47a3,3,0,0,1-2.71,1.75Zm11.45-27.73a3,3,0,0,1-2.82-4q1-2.78,2-5.61a3,3,0,1,1,5.67,2q-1,2.88-2,5.7a3,3,0,0,1-2.82,1.91Zm6.59-19.94a3,3,0,0,1-2.88-3.85q.84-2.83,1.64-5.72a3,3,0,0,1,5.83,1.43,1.54,1.54,0,0,1-.05.17q-.81,2.94-1.67,5.82a3,3,0,0,1-2.84,2.15Zm5.54-21.29a3,3,0,0,1-3-3,2.9,2.9,0,0,1,.07-.66c1.52-6.76,2.83-13.64,3.89-20.43a3,3,0,1,1,5.93.93c-1.08,6.92-2.41,13.93-4,20.82a3,3,0,0,1-2.86,2.34Zm5.19-29.54h-.38a3,3,0,0,1-2.6-3.35c.25-2,.48-3.92.69-5.9a3,3,0,0,1,6,.64h0c-.22,2-.45,4-.71,6a3,3,0,0,1-3,2.62Zm1.94-20.9h-.18a3,3,0,0,1-2.82-3.17h0c.12-2,.21-3.95.29-5.93a3,3,0,0,1,6,.24h0q-.12,3-.3,6a3,3,0,0,1-3,2.86Zm.52-22a3,3,0,0,1-3-3c-.08-6.78-.42-13.77-1-20.79a3,3,0,1,1,6-.48c.58,7.15.92,14.28,1,21.19a3,3,0,0,1-3,3Zm-1.85-30a3,3,0,0,1-3-2.68c-.2-1.92-.44-3.89-.7-5.91a3,3,0,1,1,6-.75q.39,3.08.71,6a3,3,0,0,1-2.65,3.31h0Zm-2.92-20.8a3,3,0,0,1-3-2.49q-.49-2.88-1.06-5.85A3,3,0,0,1,313.4,946q.59,3,1.08,6a3,3,0,0,1-2.44,3.47h0l-.43,0ZM307.15,934a3,3,0,0,1-2.91-2.3c-1.63-6.74-3.48-13.49-5.52-20.07a3,3,0,1,1,5.73-1.78c2.07,6.69,4,13.57,5.62,20.44a3,3,0,0,1-2.21,3.61,2.82,2.82,0,0,1-.71.09Zm-8.35-28.81a3,3,0,0,1-2.84-2q-.94-2.79-2-5.61a3,3,0,0,1,5.64-2q1,2.87,2,5.72a3,3,0,0,1-1.82,3.83,3.21,3.21,0,0,1-1,.17Zm-7.43-19.64a3,3,0,0,1-2.77-1.85q-1.12-2.73-2.34-5.46a3,3,0,0,1,5.49-2.42c.82,1.86,1.62,3.71,2.39,5.57a3,3,0,0,1-1.6,3.92,3,3,0,0,1-1.17.24Zm-9.18-20a3,3,0,0,1-2.68-1.65c-3.11-6.18-6.48-12.31-10-18.22a3,3,0,1,1,5.16-3.07c3.59,6,7,12.29,10.2,18.59a3,3,0,0,1-2.68,4.35Zm-14.81-26.07a3,3,0,0,1-2.53-1.39c-1.09-1.71-2.18-3.38-3.24-5a3,3,0,0,1,5-3.34c1.09,1.62,2.2,3.33,3.32,5.08a3,3,0,0,1-.92,4.14,3.05,3.05,0,0,1-1.61.47ZM255.3,822.28a3,3,0,0,1-2.36-1.15c-1.18-1.5-2.4-3-3.72-4.59a3,3,0,0,1,4.61-3.84c1.36,1.63,2.61,3.18,3.83,4.72a3,3,0,0,1-.51,4.21,3,3,0,0,1-1.85.64Zm-14.24-16.72a3,3,0,0,1-2.26-1c-3.49-4-7.72-8.91-12.61-15.13l-.73-.9-.15-.19a3,3,0,0,1,4.67-3.77l.15.19.78,1c4.81,6.11,9,11,12.41,14.89a3,3,0,0,1-.23,4.23,3,3,0,0,1-2,.77Zm-19-23.23a3,3,0,0,1-2.38-1.17c-1.11-1.44-2.34-3-3.67-4.83a3,3,0,0,1,4.8-3.6c1.31,1.75,2.52,3.34,3.61,4.76a3,3,0,0,1-2.37,4.83Zm-12.45-17a3,3,0,0,1-2.46-1.28c-1.11-1.6-2.25-3.26-3.43-5a3,3,0,1,1,5-3.38h0q1.74,2.55,3.39,4.92a3,3,0,0,1-.73,4.18,3.05,3.05,0,0,1-1.73.54ZM197.4,747a3,3,0,0,1-2.54-1.39c-3.79-6-7.47-12.07-10.94-18.11a3,3,0,1,1,5.2-3c3.42,6,7.06,12,10.8,17.88a3,3,0,0,1-.92,4.14,3.05,3.05,0,0,1-1.61.47Zm-15.28-25.85a3,3,0,0,1-2.63-1.56c-1-1.75-1.91-3.52-2.87-5.32a3,3,0,0,1,5.3-2.81c.94,1.77,1.89,3.52,2.83,5.25a3,3,0,0,1-2.63,4.44Zm-9.67-18.66a3,3,0,0,1-2.7-1.69q-1.31-2.7-2.61-5.46a3,3,0,0,1,5.43-2.55q1.27,2.72,2.57,5.38a3,3,0,0,1-1.39,4,3.06,3.06,0,0,1-1.3.3Zm-9.1-20a3,3,0,0,1-2.77-1.84c-2.78-6.61-5.34-13.26-7.63-19.77a3,3,0,0,1,5.66-2c2.25,6.4,4.77,12.93,7.5,19.43a3,3,0,0,1-1.6,3.92,2.9,2.9,0,0,1-1.16.24Zm-10.44-28.13a3,3,0,0,1-2.85-2.08q-.93-2.88-1.8-5.79a3,3,0,1,1,5.75-1.72c.58,1.9,1.16,3.79,1.76,5.68a3,3,0,0,1-1.93,3.77,2.92,2.92,0,0,1-.93.15Zm-5.72-20.21a3,3,0,0,1-2.91-2.29c-.48-2-.94-4-1.38-5.91a3,3,0,1,1,5.86-1.3c.42,1.92.88,3.86,1.35,5.78a3,3,0,0,1-2.92,3.71Zm-4.35-21.58a3,3,0,0,1-3-2.54c-1.12-7.12-1.91-14.23-2.35-21.14a3,3,0,1,1,6-.38c.43,6.73,1.2,13.66,2.29,20.6a3,3,0,0,1-2.49,3.43h0a3.65,3.65,0,0,1-.47,0Zm-2.71-29.87a3,3,0,0,1-3-2.94v-6.1a3,3,0,0,1,3-3h0a3,3,0,0,1,3,3v5.92a3,3,0,0,1-2.94,3.06h0Zm.66-21h-.26a3,3,0,0,1-2.73-3.25h0c.17-2,.38-4.06.62-6.06a3,3,0,1,1,6,.71c-.23,1.94-.43,3.91-.6,5.87a3,3,0,0,1-3,2.72ZM144,540a3,3,0,0,1-3-3,3.18,3.18,0,0,1,.06-.62c.62-2.91,1.31-5.82,2.07-8.67,1.06-4,2.28-8,3.61-11.9a3,3,0,1,1,5.68,1.94c-1.29,3.76-2.46,7.63-3.49,11.5-.73,2.75-1.4,5.57-2,8.37A3,3,0,0,1,144,540Zm8.7-28.65a3,3,0,0,1-3-3,3,3,0,0,1,.21-1.1c.75-1.87,1.54-3.76,2.36-5.62a3,3,0,0,1,5.49,2.41c-.79,1.8-1.56,3.63-2.28,5.44a3,3,0,0,1-2.79,1.86Zm8.89-19a3,3,0,0,1-2.64-4.42c.94-1.76,1.94-3.55,3-5.32a3,3,0,0,1,5.2,3c-1,1.72-2,3.46-2.87,5.16a3,3,0,0,1-2.69,1.56Zm11.4-18.8a3,3,0,0,1-2.49-4.68c3.65-5.42,7.73-11,12.46-17.14a3,3,0,0,1,4.74,3.67c-4.65,6-8.65,11.51-12.23,16.82A3,3,0,0,1,173,473.5Zm17.92-24a3,3,0,0,1-3-3,3,3,0,0,1,.66-1.88q1.89-2.37,3.78-4.68a3,3,0,0,1,4.65,3.79l-3.76,4.65a3,3,0,0,1-2.33,1.06Zm13.27-16.28a3,3,0,0,1-2.32-4.89q1.91-2.34,3.76-4.65a3,3,0,1,1,4.68,3.76h0c-1.24,1.55-2.51,3.11-3.79,4.68a3,3,0,0,1-2.33,1Zm13.57-17.31a3,3,0,0,1-3-3,3,3,0,0,1,.58-1.77,173.38,173.38,0,0,0,11.33-17.23,3,3,0,0,1,5.22,3,179.54,179.54,0,0,1-11.72,17.83,3,3,0,0,1-2.42,1.12Zm15.67-25.5a3,3,0,0,1-3-3,3.09,3.09,0,0,1,.28-1.27c.84-1.78,1.62-3.57,2.33-5.32a3,3,0,1,1,5.57,2.24h0c-.75,1.86-1.58,3.76-2.46,5.64a3,3,0,0,1-2.73,1.66Zm6.9-19.82a3,3,0,0,1-3.06-2.93,2.8,2.8,0,0,1,.06-.71c.41-1.87.77-3.78,1-5.68a3,3,0,0,1,6,.63,1.87,1.87,0,0,1,0,.25c-.3,2-.68,4.09-1.13,6.09A3,3,0,0,1,240.3,370.6Zm2-21.81a3,3,0,0,1-3-2.9c-.08-2.54-.28-5.16-.58-7.77a99.53,99.53,0,0,0-2.22-12.37,3,3,0,1,1,5.83-1.42,105.75,105.75,0,0,1,2.36,13.1c.32,2.78.53,5.56.62,8.26a3,3,0,0,1-2.89,3.1h-.12Zm-5.38-29.39a3,3,0,0,1-2.85-2.06c-.6-1.82-1.27-3.67-2-5.5a3,3,0,0,1,5.59-2.17c.75,1.92,1.45,3.87,2.08,5.78a3,3,0,0,1-1.89,3.79,2.85,2.85,0,0,1-1,.16Zm-8.25-19.27a3,3,0,0,1-2.66-1.61c-.89-1.7-1.83-3.44-2.82-5.17a3,3,0,1,1,5.21-3h0c1,1.79,2,3.6,2.93,5.36a3,3,0,0,1-2.66,4.39Zm-11.37-18.8a3,3,0,0,1-2.48-1.31c-3.66-5.35-7.71-10.81-12.39-16.67a3,3,0,1,1,4.61-3.84.39.39,0,0,1,.08.1c4.77,6,8.91,11.55,12.65,17a3,3,0,0,1-.79,4.17,3,3,0,0,1-1.68.52Zm-18.22-23.81a3,3,0,0,1-2.3-1.07q-1.89-2.26-3.85-4.55A3,3,0,0,1,197.4,248c1.34,1.54,2.64,3.08,3.9,4.6a3,3,0,0,1-2.3,4.93ZM185.2,241.7a3,3,0,0,1-2.23-1l-4-4.42a3,3,0,0,1,4.42-4.06h0q2.07,2.24,4.06,4.45a3,3,0,0,1-.23,4.23,3,3,0,0,1-2,.77Zm-15-16.12a3,3,0,0,1-2.18-.94c-4.23-4.47-9-9.41-14.52-15.12a3,3,0,1,1,4.31-4.18c5.55,5.73,10.32,10.69,14.57,15.17a3,3,0,0,1-2.18,5.06ZM149.42,204a3,3,0,0,1-2.15-.91l-4.19-4.29a3,3,0,0,1,4.29-4.19l4.19,4.3a3,3,0,0,1-2.15,5.09Zm-14.69-15a3,3,0,0,1-2.13-.89c-1.42-1.44-2.82-2.84-4.22-4.22a3,3,0,0,1,4.22-4.26q2.11,2.08,4.26,4.26a3,3,0,0,1,0,4.24A3,3,0,0,1,134.73,189ZM119,173.57a3,3,0,0,1-2.07-.83c-5.41-5.16-10.52-9.91-15.29-14.33a3,3,0,1,1,4.08-4.4c4.78,4.44,9.91,9.2,15.35,14.39a3,3,0,0,1-2.07,5.17ZM97.1,153.11a3,3,0,0,1-2-.8l-4.39-4.1a3,3,0,0,1,4-4.44l.07.07,4.37,4.08a3,3,0,0,1-2,5.2ZM81.92,138.62a3,3,0,0,1-2.12-.88c-1.53-1.52-2.92-2.94-4.25-4.33a3,3,0,0,1,4.33-4.15c1.3,1.36,2.66,2.74,4.15,4.23a3,3,0,0,1-2.12,5.12ZM67.2,122.29a3,3,0,0,1-2.37-1.16,78,78,0,0,1-11-18.72A3,3,0,1,1,59.27,100a1.19,1.19,0,0,1,.08.2,72.16,72.16,0,0,0,10.22,17.27,3,3,0,0,1-2.37,4.84ZM53.9,95.72A3,3,0,0,1,51,93.37a62.41,62.41,0,0,1-1-6.22,3,3,0,1,1,6-.68,55.72,55.72,0,0,0,.94,5.59A3,3,0,0,1,54,95.72ZM53,74.87h-.38a3,3,0,0,1-2.6-3.35c.26-2,.61-4.12,1.06-6.17A3,3,0,0,1,57,66.63c-.41,1.88-.74,3.78-1,5.65A3,3,0,0,1,53,74.88Zm6.06-21.05a3,3,0,0,1-3-3,3.09,3.09,0,0,1,.26-1.23A108.14,108.14,0,0,1,67.24,31a3,3,0,0,1,4.87,3.5A102,102,0,0,0,61.84,52a3,3,0,0,1-2.74,1.78ZM75.16,28.59a3,3,0,0,1-2.31-4.91c1.28-1.55,2.62-3.11,4-4.64a3,3,0,1,1,4.48,4c-1.32,1.48-2.61,3-3.83,4.47a3,3,0,0,1-2.33,1.08ZM89.53,13.28a3,3,0,0,1-2.07-5.17C88.89,6.75,90.39,5.36,91.93,4a3,3,0,1,1,4.25,4.24l-.25.22c-1.49,1.35-3,2.7-4.34,4a3,3,0,0,1-2.06.84Z" fill="url(#479a2a7b-923b-4af0-8819-cd81cc7d53b5)"/></g><g opacity="0.6"><path d="M220.57,1546.53a3,3,0,0,1-2.77-1.84c-2.75-6.53-5.28-13.2-7.53-19.83a3,3,0,0,1,5.65-2l0,.11c2.2,6.49,4.69,13,7.38,19.43a3,3,0,0,1-1.59,3.93,3,3,0,0,1-1.17.24Zm-10.22-28.2a3,3,0,0,1-2.87-2.13q-.87-2.87-1.71-5.82a3,3,0,1,1,5.78-1.63q.82,2.89,1.67,5.7a3,3,0,0,1-2,3.75,3.36,3.36,0,0,1-.89.13ZM205,1498a3,3,0,0,1-2.93-2.35c-.44-2-.86-4-1.26-5.94a3,3,0,0,1,5.88-1.18c.38,1.92.8,3.88,1.23,5.81a3,3,0,0,1-2.27,3.58A3.5,3.5,0,0,1,205,1498Zm-3.89-21.65a3,3,0,0,1-3-2.6c-1-7-1.62-14.17-2-21.16a3,3,0,1,1,6-.3c.34,6.82,1,13.77,1.92,20.65a3,3,0,0,1-2.56,3.38h0Zm-2.22-29.9a3,3,0,0,1-3-3v-6.07a3,3,0,0,1,3-3h0a3,3,0,0,1,3,3v5.93a3,3,0,0,1-3,3Zm.7-21h-.28a3,3,0,0,1-2.76-3.22h0c.16-2,.35-4,.56-6a3,3,0,1,1,6,.63c-.21,2-.39,3.94-.54,5.9a3,3,0,0,1-3,2.76Zm2.79-21.81h-.51a3,3,0,0,1-2.45-3.47h0V1400c1.2-6.75,2.76-13.66,4.63-20.55a3,3,0,0,1,5.79,1.57c-1.82,6.72-3.34,13.46-4.51,20v.16a3,3,0,0,1-3,2.46Zm7.1-29.13a3,3,0,0,1-3-3,3.23,3.23,0,0,1,.13-.88c.59-1.9,1.21-3.85,1.85-5.78a3,3,0,0,1,5.77,1.67c0,.07-.05.15-.08.22-.63,1.89-1.24,3.79-1.81,5.65a3,3,0,0,1-2.86,2.13Zm6.94-19.82a3,3,0,0,1-3-3,3.16,3.16,0,0,1,.21-1.1q1.13-2.88,2.27-5.62a3,3,0,0,1,5.54,2.3c-.74,1.8-1.48,3.63-2.22,5.51a3,3,0,0,1-2.8,1.92Zm8.74-20.19a3,3,0,0,1-3-3,3.09,3.09,0,0,1,.28-1.27c2.9-6.12,5.94-12.11,9.58-18.87a3,3,0,1,1,5.28,2.85c-3.59,6.66-6.59,12.57-9.44,18.59a3,3,0,0,1-2.71,1.72ZM239,1308a3,3,0,0,1-3-3,3,3,0,0,1,.38-1.46q1.5-2.7,3-5.26a3,3,0,0,1,5.2,3q-1.45,2.52-2.93,5.18A3,3,0,0,1,239,1308Zm10.73-18a3,3,0,0,1-3-3,3.15,3.15,0,0,1,.47-1.61q1.67-2.61,3.29-5.07a3,3,0,0,1,5.12,3.13l-.12.18q-1.59,2.42-3.24,5a3,3,0,0,1-2.52,1.28Zm12.41-18.16a3,3,0,0,1-2.42-4.77c4.73-6.46,9.17-12.09,12.89-16.74a3,3,0,0,1,5.11,3.14,2.6,2.6,0,0,1-.41.53c-3.68,4.6-8.08,10.16-12.73,16.53a3,3,0,0,1-2.44,1.22Zm18.45-23.65a3,3,0,0,1-2.34-4.87l2.79-3.52.9-1.15a3,3,0,1,1,4.75,3.67l-.91,1.18q-1.35,1.72-2.83,3.58a3,3,0,0,1-2.36,1Zm12.56-16.83a3,3,0,0,1-2.47-4.71q1.69-2.46,3.32-4.92a3,3,0,0,1,5.12,3.13l-.12.18c-1.11,1.68-2.24,3.34-3.4,5a3,3,0,0,1-2.46,1.23ZM305,1212.77a3,3,0,0,1-3-3,3,3,0,0,1,.41-1.51c3.46-5.88,6.81-12,10-18.27a3,3,0,0,1,5.36,2.7h0c-3.2,6.36-6.61,12.62-10.14,18.61a3,3,0,0,1-2.65,1.4Zm14-26.53a3,3,0,0,1-3-3,3.09,3.09,0,0,1,.28-1.27q1.29-2.7,2.49-5.4a3,3,0,1,1,5.54,2.31,1,1,0,0,1-.07.15c-.82,1.83-1.67,3.66-2.53,5.5a3,3,0,0,1-2.74,1.63Zm8.39-19.25a3,3,0,0,1-2.78-4.12c.75-1.86,1.48-3.7,2.18-5.54a3,3,0,0,1,5.6,2.15c-.72,1.87-1.45,3.75-2.21,5.63a3,3,0,0,1-2.85,1.79Zm7.62-20.65a3,3,0,0,1-3-3,3.1,3.1,0,0,1,.17-1c2.19-6.5,4.26-13.21,6.15-19.93a3,3,0,1,1,5.78,1.62h0c-1.92,6.82-4,13.62-6.24,20.22a3,3,0,0,1-2.87,2Zm8.54-28.77a3,3,0,0,1-3-3,3.14,3.14,0,0,1,.09-.75c.51-2,1-3.88,1.45-5.78a3,3,0,1,1,5.83,1.42h0c-.46,1.92-.95,3.88-1.47,5.86a3,3,0,0,1-2.91,2.16Zm4.76-20.46a3,3,0,0,1-3-3,3.08,3.08,0,0,1,.06-.61q.63-3,1.17-5.85a3,3,0,1,1,5.91,1,.29.29,0,0,1,0,.09q-.56,2.89-1.19,5.93a3,3,0,0,1-2.91,2.3Zm3.93-21.67h-.46a3,3,0,0,1-2.5-3.42c1.09-7,2-13.8,2.68-20.7a3,3,0,1,1,6,.62h0c-.72,7-1.61,13.88-2.72,21a3,3,0,0,1-3,2.41Zm3.55-29.83h-.27a3,3,0,0,1-2.72-3.25q.25-2.77.5-5.95a3,3,0,1,1,6,.47q-.24,3.21-.51,6a3,3,0,0,1-3,2.64Zm1.43-21h-.14a3,3,0,0,1-2.86-3.13q.13-2.9.22-6a3,3,0,0,1,3.09-2.91h0a3,3,0,0,1,2.91,3.08h0q-.09,3.11-.22,6a3,3,0,0,1-3,2.91Zm.37-22a3,3,0,0,1-3-3h0c-.08-7-.35-14-.82-20.81a3,3,0,1,1,6-.41c.47,7,.75,14.07.83,21.16a3,3,0,0,1-3,3Zm-1.56-30a3,3,0,0,1-3-2.72q-.27-2.94-.61-5.92a3,3,0,1,1,6-.66h0q.35,3,.62,6a3,3,0,0,1-2.7,3.27h0Zm-2.59-20.84a3,3,0,0,1-3-2.54q-.45-2.91-1-5.87a3,3,0,0,1,5.91-1q.54,3,1,6a3,3,0,0,1-2.5,3.42,2.74,2.74,0,0,1-.5,0Zm-4.11-21.6a3,3,0,0,1-2.92-2.34c-1.54-6.78-3.31-13.55-5.28-20.11a3,3,0,1,1,5.75-1.72h0c2,6.69,3.81,13.59,5.38,20.51a3,3,0,0,1-2.93,3.66Zm-8-28.89a3,3,0,0,1-2.85-2q-.93-2.81-1.93-5.61a3,3,0,0,1,5.56-2.27,1.43,1.43,0,0,1,.09.27q1,2.86,2,5.73a3,3,0,0,1-1.89,3.79,2.85,2.85,0,0,1-1,.16ZM334,881.61a3,3,0,0,1-2.77-1.85q-1.12-2.73-2.33-5.46a3,3,0,0,1,5.47-2.48l0,.06c.82,1.86,1.62,3.71,2.38,5.57A3,3,0,0,1,334,881.6Zm-9.22-20a3,3,0,0,1-2.67-1.64c-3-5.91-6.28-11.76-9.7-17.42l-.43-.71a3,3,0,1,1,5.12-3.13h0l.44.73c3.5,5.77,6.83,11.76,9.91,17.8a3,3,0,0,1-1.31,4,3.06,3.06,0,0,1-1.36.33Zm-15.08-25.9a3,3,0,0,1-2.49-1.32c-1.14-1.69-2.24-3.26-3.37-4.8a3,3,0,1,1,4.68-3.76l.15.21c1.18,1.61,2.33,3.24,3.51,5a3,3,0,0,1-2.49,4.68Zm-12.83-16.56a3,3,0,0,1-2.3-1.07c-1.21-1.44-2.48-3-3.86-4.62a3,3,0,0,1,4.63-3.81c1.36,1.65,2.62,3.15,3.82,4.58a3,3,0,0,1-2.29,4.93ZM283.09,802a3,3,0,0,1-2.4-1.2l-2.44-3.29c-1.2-1.64-2.76-3.69-4.6-6.13-1.64-2.17-3.52-4.65-5.58-7.41a3,3,0,0,1,4.81-3.59c2.06,2.75,3.92,5.22,5.56,7.38,1.87,2.47,3.44,4.54,4.65,6.2l2.4,3.24a3,3,0,0,1-2.4,4.8Zm-18-24.08a3,3,0,0,1-2.42-1.23l-3.54-4.89a3,3,0,0,1,4.77-3.65l.1.15,3.51,4.85a3,3,0,0,1-2.42,4.77Zm-12.15-17.16a3,3,0,0,1-2.48-1.31l-3.39-5a3,3,0,0,1,5-3.34c1.14,1.68,2.25,3.35,3.35,5a3,3,0,0,1-.79,4.17,3,3,0,0,1-1.68.52Zm-12.11-18.39A3,3,0,0,1,238.3,741c-3.81-6-7.49-12.12-10.94-18.08a3,3,0,1,1,5.2-3c3.41,5.9,7,11.92,10.82,17.88a3,3,0,0,1-.93,4.13,2.93,2.93,0,0,1-1.6.47Zm-15.3-25.77A3,3,0,0,1,222.9,715c-1-1.75-1.93-3.52-2.89-5.3a3,3,0,1,1,5.29-2.84q1.42,2.64,2.86,5.24a3,3,0,0,1-1.17,4.07,2.93,2.93,0,0,1-1.45.38ZM215.77,698a3,3,0,0,1-2.69-1.67c-.88-1.8-1.76-3.62-2.64-5.44a3,3,0,0,1,5.42-2.58h0c.86,1.8,1.73,3.58,2.6,5.36a3,3,0,0,1-2.69,4.33Zm-9.22-20a3,3,0,0,1-2.76-1.82c-2.83-6.6-5.43-13.24-7.76-19.72a3,3,0,0,1,5.56-2.27,1.43,1.43,0,0,1,.09.27c2.28,6.37,4.85,12.89,7.62,19.38a3,3,0,0,1-1.57,3.94,3,3,0,0,1-1.19.24Zm-10.62-28.09a3,3,0,0,1-2.85-2.07c-.62-1.9-1.22-3.84-1.78-5.84a3,3,0,1,1,5.74-1.75q.87,2.85,1.79,5.68a3,3,0,0,1-1.92,3.78,2.92,2.92,0,0,1-.93.15Zm-5.81-20.21a3,3,0,0,1-2.91-2.28c-.49-2-1-4-1.39-5.92a3,3,0,0,1,5.86-1.3c.43,1.91.88,3.86,1.36,5.78a3,3,0,0,1-2.92,3.72Zm-4.34-21.57a3,3,0,0,1-3-2.54c-1.1-7.14-1.85-14.26-2.23-21.17a3,3,0,1,1,6-.33c.37,6.71,1.1,13.63,2.17,20.58a3,3,0,0,1-2.51,3.42l-.43,0Zm-2.48-29.87a3,3,0,0,1-3-3v-6.09a3,3,0,0,1,3-2.93h.07a3,3,0,0,1,2.93,3.07h0v5.91a3,3,0,0,1-3,3Zm1-21H184A3,3,0,0,1,181.3,554c.22-2,.47-4,.76-6.06a3,3,0,1,1,5.94.85c-.28,1.94-.53,3.91-.73,5.85a3,3,0,0,1-3,2.66Zm3.79-21.66a2.88,2.88,0,0,1-.71-.09,3,3,0,0,1-2.21-3.62,185.09,185.09,0,0,1,6.25-20.38,3,3,0,0,1,5.7,1.88,1.8,1.8,0,0,1-.08.21,178.34,178.34,0,0,0-6,19.71,3,3,0,0,1-2.95,2.33Zm9.48-28.4a3,3,0,0,1-3-3,3,3,0,0,1,.24-1.18c.79-1.85,1.63-3.72,2.48-5.56a3,3,0,1,1,5.47,2.46l0,.07c-.83,1.79-1.64,3.6-2.41,5.39a3,3,0,0,1-2.75,1.87Zm9.27-18.82a3,3,0,0,1-3-3,3,3,0,0,1,.38-1.46c1-1.74,2-3.51,3-5.27a3,3,0,0,1,5.22,3l-.06.09c-1,1.71-2,3.44-3,5.13a3,3,0,0,1-2.54,1.59Zm11.56-18.7a3,3,0,0,1-2.48-4.68c3.53-5.23,7.44-10.7,12.29-17.2a3,3,0,0,1,4.81,3.59c-4.8,6.42-8.65,11.81-12.13,17a3,3,0,0,1-2.49,1.34ZM236,445.37a3,3,0,0,1-2.38-4.82l3.64-4.77a3,3,0,1,1,4.77,3.64h0l-3.64,4.77a3,3,0,0,1-2.39,1.23Zm12.67-16.74a3,3,0,0,1-3-3,3,3,0,0,1,.58-1.77q1.78-2.42,3.51-4.81a3,3,0,0,1,4.87,3.5q-1.74,2.43-3.56,4.88a3,3,0,0,1-2.4,1.25Zm12.5-18.09a3,3,0,0,1-2.54-4.59,137.77,137.77,0,0,0,9.7-18.08,3,3,0,1,1,5.5,2.4,143.74,143.74,0,0,1-10.12,18.87,3,3,0,0,1-2.53,1.44Zm13.16-26.85a3,3,0,0,1-3-3,3.1,3.1,0,0,1,.17-1c.62-1.85,1.19-3.72,1.68-5.56a3,3,0,1,1,5.8,1.55c-.53,2-1.13,4-1.79,5.92a3,3,0,0,1-2.85,2.13Zm4.38-20.46h-.28a3,3,0,0,1-2.71-3.26c.18-1.9.29-3.84.33-5.77a3,3,0,0,1,6,.14c0,2.06-.17,4.14-.36,6.18a3,3,0,0,1-3,2.75Zm-.66-21.92a3,3,0,0,1-3-2.56l-.09-.6A105.29,105.29,0,0,0,270.18,319a3,3,0,0,1,5.66-2,110.57,110.57,0,0,1,5.08,20.27l.09.63a3,3,0,0,1-2.52,3.4,2.59,2.59,0,0,1-.48,0Zm-8.34-28.7a3,3,0,0,1-2.75-1.8c-.77-1.75-1.6-3.54-2.48-5.31a3,3,0,0,1,5.38-2.66c.91,1.85,1.79,3.72,2.59,5.56a3,3,0,0,1-1.55,4,3,3,0,0,1-1.2.25Zm-9.84-18.52a3,3,0,0,1-2.55-1.42c-1-1.64-2.09-3.31-3.2-5a3,3,0,1,1,5-3.33c1.14,1.7,2.25,3.43,3.3,5.12a3,3,0,0,1-2.54,4.58Zm-12.62-18a3,3,0,0,1-2.37-1.16c-4-5.13-8.33-10.36-13.3-16a3,3,0,0,1,4.5-4c5.06,5.73,9.5,11.06,13.55,16.28a3,3,0,0,1-2.37,4.84Zm-19.46-22.82a3,3,0,0,1-2.21-1q-2-2.18-4.06-4.37a3,3,0,1,1,4.3-4.19l.07.08Q228,246,230,248.21a3,3,0,0,1-.23,4.23,3,3,0,0,1-2,.77ZM213.3,238.13a3,3,0,0,1-2.14-.9L207,233a3,3,0,1,1,4.25-4.24h0l4.24,4.28a3,3,0,0,1-2.14,5.1Zm-15.6-15.51a3.06,3.06,0,0,1-2.1-.85c-4.41-4.31-9.2-8.94-15.08-14.57a3,3,0,1,1,4-4.45l.12.12c5.89,5.65,10.7,10.29,15.12,14.61a3,3,0,0,1-2.1,5.15ZM176.1,201.8A3,3,0,0,1,174,201l-4.34-4.14a3,3,0,1,1,4-4.45.57.57,0,0,1,.11.11l4.34,4.14a3,3,0,0,1-2.07,5.17Zm-15.23-14.45a3,3,0,0,1-2-.8q-2.22-2.07-4.39-4a3,3,0,0,1,3.55-4.84,2.92,2.92,0,0,1,.45.41q2.19,2,4.43,4.08a3,3,0,0,1-2,5.2ZM144.56,172.6a3.08,3.08,0,0,1-2-.75c-5.3-4.68-10.31-9-15.16-13.19l-.66-.57a3,3,0,0,1,3.92-4.54l.66.57c4.86,4.2,9.88,8.54,15.2,13.23a3,3,0,0,1,.27,4.23,3,3,0,0,1-2.27,1ZM122,153a3.07,3.07,0,0,1-2-.74l-4.53-4a3,3,0,1,1,4-4.5l4.5,3.94a3,3,0,0,1-2,5.26Zm-15.61-14a3,3,0,0,1-2.06-.82c-1.54-1.46-3-2.88-4.36-4.23a3,3,0,0,1,4.24-4.25h0c1.32,1.31,2.74,2.7,4.25,4.12a3,3,0,0,1-2.06,5.18Zm-15-16A3,3,0,0,1,89,121.83,75.2,75.2,0,0,1,77.8,103.06a3,3,0,1,1,5.57-2.24h0A69.18,69.18,0,0,0,93.68,118a3,3,0,0,1-2.38,4.9ZM77.9,96.38A3,3,0,0,1,75,94q-.69-3.08-1.08-6.2a3,3,0,1,1,6-.72c.24,1.88.58,3.74,1,5.59a3,3,0,0,1-2.25,3.59,3.08,3.08,0,0,1-.68.08ZM76.84,75.53H76.5a3,3,0,0,1-2.65-3.32h0c.23-2,.55-4.12,1-6.18a3,3,0,0,1,5.88,1.18c-.38,1.89-.68,3.8-.89,5.67a3,3,0,0,1-3,2.65Zm5.67-21.17a3,3,0,0,1-2.76-4.16A112.22,112.22,0,0,1,90.11,31.3a3,3,0,0,1,5,3.36h0A105.41,105.41,0,0,0,85.3,52.52,3,3,0,0,1,82.51,54.36ZM97.87,28.68a3,3,0,0,1-2.37-4.83c1.22-1.57,2.5-3.18,3.83-4.77a3,3,0,0,1,4.6,3.88c-1.28,1.53-2.52,3.08-3.69,4.59A3,3,0,0,1,97.87,28.68ZM111.72,12.9a3,3,0,0,1-2.14-5.1c1.39-1.41,2.84-2.86,4.32-4.28a3,3,0,0,1,4.17,4.31c-1.44,1.39-2.85,2.8-4.2,4.17a3,3,0,0,1-2.15.9Z" fill="url(#dbba9a3e-4f6b-4dc6-90b4-73f30db4e3dc)"/></g><g opacity="0.6"><path d="M287.13,1551.42a3,3,0,0,1-2.56-1.42c-1.07-1.72-2.12-3.48-3.13-5.21a3,3,0,1,1,5-3.36c.07.12.14.23.2.36,1,1.69,2,3.4,3.05,5.08a3,3,0,0,1-2.55,4.58Zm-10.67-19.23a3,3,0,0,1-2.69-1.67c-3.14-6.37-6-12.93-8.51-19.5a3,3,0,1,1,5.61-2.14c2.44,6.39,5.23,12.78,8.29,19a3,3,0,0,1-2.69,4.33ZM265,1504.48a3,3,0,0,1-2.84-2c-.65-1.93-1.27-3.88-1.85-5.79a3,3,0,1,1,5.74-1.75c.57,1.86,1.17,3.76,1.8,5.64a3,3,0,0,1-1.82,3.83,3.27,3.27,0,0,1-1,.17Zm-5.7-20.21a3,3,0,0,1-2.92-2.33c-.45-2-.88-4-1.28-6a3,3,0,0,1,5.88-1.18c.39,1.93.8,3.87,1.24,5.78a3,3,0,0,1-2.25,3.59,3.08,3.08,0,0,1-.68.08Zm-3.82-21.66a3,3,0,0,1-3-2.63c-.87-7-1.41-14.13-1.6-21.22a3,3,0,1,1,6-.16h0c.19,6.9.71,13.84,1.55,20.64a3,3,0,0,1-2.6,3.35h0Zm-1.63-29.93h0a3,3,0,0,1-3-3c0-2,.08-4.07.17-6.08a3,3,0,0,1,6,.24h0c-.08,2-.13,3.94-.16,5.92a3,3,0,0,1-3,2.93Zm1.28-21h-.32a3,3,0,0,1-2.66-3.3c.21-2,.46-4,.73-6a3,3,0,1,1,6,.79c-.26,2-.5,3.94-.71,5.88a3,3,0,0,1-3,2.68Zm3.37-21.74a3,3,0,0,1-3-3,3,3,0,0,1,.06-.6c1.39-6.87,3.11-13.81,5.11-20.63a3,3,0,1,1,5.76,1.69c-2,6.65-3.63,13.43-5,20.13a3,3,0,0,1-2.92,2.43Zm7.73-29a3,3,0,0,1-3-3,3,3,0,0,1,.15-1c.63-1.91,1.3-3.84,2-5.74a3,3,0,0,1,5.65,2c-.67,1.86-1.32,3.74-1.94,5.61a3,3,0,0,1-2.81,2.16Zm7.44-19.64a3,3,0,0,1-3-3,3,3,0,0,1,.24-1.18c.79-1.86,1.62-3.73,2.45-5.56a3,3,0,1,1,5.46,2.49c-.81,1.79-1.62,3.61-2.4,5.43a3,3,0,0,1-2.74,1.9Zm9.56-19.83a3,3,0,0,1-2.63-4.43c1.55-2.86,3.09-5.54,4.69-8.17,2.42-4,4.52-7.16,6.59-10a3,3,0,1,1,4.84,3.55h0a113.42,113.42,0,0,0-6.3,9.55c-1.55,2.55-3,5.15-4.55,7.92a3,3,0,0,1-2.59,1.66ZM300,1296.69a3,3,0,0,1-2.25-5c.74-.84,1.5-1.69,2.3-2.57l1.7-1.9a3,3,0,0,1,4.48,4h0l-1.72,1.92-2.26,2.53a3,3,0,0,1-2.24,1.11Zm13.59-15.94a3,3,0,0,1-2.36-4.85q1.68-2.14,3.62-4.71a3,3,0,0,1,4.89,3.48.64.64,0,0,1-.1.13c-1.31,1.74-2.54,3.33-3.68,4.8a3,3,0,0,1-2.36,1.24Zm13-17.7a3,3,0,0,1-2.46-4.72c3.81-5.45,7.73-11.3,11.64-17.37a3,3,0,1,1,5.36,2.69,3,3,0,0,1-.36.56q-6,9.21-11.77,17.56a3,3,0,0,1-2.37,1.37ZM343.1,1238a3,3,0,0,1-2.54-4.59c1-1.64,2.08-3.34,3.14-5.08a3,3,0,1,1,5.12,3.13h0c-1.08,1.76-2.13,3.47-3.17,5.13a3,3,0,0,1-2.51,1.5Zm10.84-18a3,3,0,0,1-2.59-4.5l3-5.18a3,3,0,1,1,5.22,3c-1,1.78-2,3.52-3,5.24a3,3,0,0,1-2.59,1.52Zm10.67-19.25a3,3,0,0,1-3-3,3.07,3.07,0,0,1,.34-1.39c3.32-6.28,6.48-12.56,9.39-18.66a3,3,0,1,1,5.42,2.58h0c-2.95,6.17-6.14,12.52-9.51,18.88a3,3,0,0,1-2.61,1.68Zm13.25-26.93a3,3,0,0,1-3-3,3.1,3.1,0,0,1,.26-1.24q1.23-2.71,2.42-5.45a3,3,0,0,1,5.5,2.4q-1.2,2.77-2.46,5.52a3,3,0,0,1-2.69,1.85Zm8.19-19.35a3,3,0,0,1-3-3,3.16,3.16,0,0,1,.21-1.1q1.1-2.77,2.12-5.56a3,3,0,0,1,5.62,2.09q-1,2.83-2.16,5.66a3,3,0,0,1-2.75,2Zm7.22-20.81a3,3,0,0,1-3-3,3.23,3.23,0,0,1,.13-.88c2-6.42,3.84-13.18,5.57-20.1a3,3,0,0,1,5.82,1.46c-1.76,7-3.66,13.88-5.66,20.4a3,3,0,0,1-2.83,2.2Zm7.72-29a3,3,0,0,1-3-3,3.05,3.05,0,0,1,.07-.67q.66-2.85,1.3-5.82a3,3,0,1,1,5.87,1.26c-.43,2-.87,4-1.31,5.9a3,3,0,0,1-2.9,2.4Zm4.23-20.58a3,3,0,0,1-3.05-3,3.81,3.81,0,0,1,.05-.59q.54-2.89,1-5.87a3,3,0,0,1,5.92,1q-.51,3-1,6a3,3,0,0,1-2.84,2.49Zm3.41-21.74h-.4a3,3,0,0,1-2.58-3.37h0c.91-6.92,1.66-13.9,2.22-20.74a3,3,0,1,1,6,.49c-.57,6.94-1.33,14-2.25,21a3,3,0,0,1-3,2.69Zm2.88-29.87h-.18a3,3,0,0,1-2.81-3.18h0c.12-2,.23-4,.32-5.95a3,3,0,1,1,6,.28q-.13,3-.32,6a3,3,0,0,1-3,2.93Zm.72-21h0a3,3,0,0,1-3-3v-6a3,3,0,0,1,3-3h0a3,3,0,0,1,3,3v6a3,3,0,0,1-2.9,3.09h0Zm-.47-22a3,3,0,0,1-3-2.85c-.36-7-.93-14-1.69-20.75a3,3,0,1,1,6-.67c.78,6.9,1.36,14,1.72,21.11a3,3,0,0,1-2.84,3.15Zm-2.84-29.86a3,3,0,0,1-3-2.58q-.41-2.94-.88-5.88a3,3,0,0,1,5.89-1.18l0,.23q.48,3,.9,6a3,3,0,0,1-2.55,3.39h0l-.35.12ZM405.3,939a3,3,0,0,1-2.93-2.39q-.6-2.91-1.28-5.8a3,3,0,0,1,5.85-1.35q.69,3,1.3,5.92a3,3,0,0,1-2.32,3.55A3.18,3.18,0,0,1,405.3,939ZM400,917.62a3,3,0,0,1-2.88-2.17c-1.93-6.68-4.13-13.31-6.52-19.72a3,3,0,1,1,5.6-2.17.64.64,0,0,1,0,.07c2.45,6.55,4.69,13.33,6.66,20.15a3,3,0,0,1-2.05,3.71,2.92,2.92,0,0,1-.83.12Zm-9.88-28.31a3,3,0,0,1-2.77-1.86c-.75-1.82-1.53-3.65-2.32-5.46a3,3,0,0,1,5.49-2.41c.81,1.84,1.61,3.72,2.38,5.58a3,3,0,0,1-2.77,4.15Zm-8.78-19.07a3,3,0,0,1-2.67-1.64c-.9-1.76-1.83-3.52-2.76-5.25a3,3,0,1,1,5.28-2.85c1,1.77,1.91,3.57,2.82,5.37a3,3,0,0,1-1.3,4A3.07,3.07,0,0,1,381.33,870.24Zm-10.84-19.13a3,3,0,0,1-2.55-1.41c-.54-.86-1.08-1.73-1.64-2.59a99.29,99.29,0,0,0-10.3-14,3,3,0,0,1,4.46-4,104.54,104.54,0,0,1,10.89,14.73c.57.88,1.13,1.76,1.68,2.65a3,3,0,0,1-2.54,4.59Zm-18.4-23.49a3.06,3.06,0,0,1-2.19-1c-1.44-1.54-2.73-3-4.08-4.51a3,3,0,1,1,4.51-4h0c1.3,1.49,2.56,2.88,3.95,4.36a3,3,0,0,1-2.19,5Zm-13.5-16a3,3,0,0,1-2.37-1.16c-1.15-1.48-2.37-3.07-3.67-4.79a3,3,0,1,1,4.79-3.62c1.28,1.7,2.49,3.26,3.62,4.72a3,3,0,0,1-2.37,4.84ZM325.3,794.15a3,3,0,0,1-2.38-1.18c-3.59-4.68-8.06-10.51-12.74-16.78A3,3,0,0,1,315,772.6c4.66,6.23,9.11,12,12.69,16.72a3,3,0,0,1-2.38,4.83Zm-18.07-24A3,3,0,0,1,304.8,769l-3.54-4.87a3,3,0,0,1,4.87-3.51h0c1.19,1.64,2.36,3.26,3.52,4.84a3,3,0,0,1-2.42,4.77ZM295,753a3,3,0,0,1-2.47-1.29c-1.13-1.64-2.27-3.3-3.41-5a3,3,0,1,1,5-3.37c1.14,1.66,2.26,3.31,3.38,4.93a3,3,0,0,1-.75,4.17,3,3,0,0,1-1.72.54Zm-12.21-18.32a3,3,0,0,1-2.53-1.38c-3.87-6-7.59-12.11-11.06-18a3,3,0,1,1,4.91-3.45,2.51,2.51,0,0,1,.26.45c3.42,5.83,7.1,11.82,10.93,17.81a3,3,0,0,1-2.52,4.62ZM267.3,709a3,3,0,0,1-2.62-1.53q-1.47-2.62-2.92-5.29a3,3,0,1,1,5.27-2.87h0q1.44,2.63,2.89,5.22a3,3,0,0,1-1.14,4.08A3,3,0,0,1,267.3,709Zm-9.86-18.56a3,3,0,0,1-2.69-1.66c-.9-1.8-1.78-3.61-2.66-5.43a3,3,0,1,1,5.41-2.6c.86,1.79,1.74,3.57,2.62,5.35a3,3,0,0,1-2.68,4.34Zm-9.28-20a3,3,0,0,1-2.76-1.82c-2.84-6.63-5.45-13.27-7.74-19.75a3,3,0,1,1,5.66-2h0c2.25,6.35,4.81,12.88,7.6,19.38a3,3,0,0,1-1.57,3.94,3,3,0,0,1-1.19.24Zm-10.55-28.1a3,3,0,0,1-2.86-2.09q-.92-2.9-1.79-5.8a3,3,0,0,1,5.69-1.91,1.66,1.66,0,0,1,.06.21c.56,1.9,1.15,3.79,1.75,5.68a3,3,0,0,1-2,3.77,3.09,3.09,0,0,1-.91.14ZM232,622.06a3,3,0,0,1-2.92-2.32c-.46-2-.9-4-1.31-5.93a3,3,0,1,1,5.88-1.22h0c.4,1.91.83,3.86,1.27,5.78a3,3,0,0,1-2.24,3.6,3.26,3.26,0,0,1-.63.18Zm-4-21.62a3,3,0,0,1-3-2.6,203.8,203.8,0,0,1-1.7-21.23,3,3,0,0,1,6-.16,197.39,197.39,0,0,0,1.65,20.6,3,3,0,0,1-2.57,3.37h0Zm-1.68-29.91h0a3,3,0,0,1-2.93-3.07h0c0-2,.13-4.09.25-6.1a3,3,0,1,1,6,.35c-.11,1.94-.19,3.92-.24,5.89a3,3,0,0,1-3,3h0Zm1.77-20.91h-.44a3,3,0,0,1-2.53-3.41h0q.45-3,1-6a3,3,0,0,1,5.9,1.09c-.36,1.92-.68,3.88-1,5.81a3,3,0,0,1-2.86,2.58Zm4.59-21.49a3,3,0,0,1-3-3,3.1,3.1,0,0,1,.11-.81,193.11,193.11,0,0,1,6.87-20.17,3,3,0,0,1,5.56,2.25A186.41,186.41,0,0,0,235.64,526a3,3,0,0,1-2.89,2.25ZM243,500a3,3,0,0,1-2.73-4.25c.84-1.83,1.71-3.68,2.61-5.49A3,3,0,1,1,248.3,493c-.87,1.77-1.72,3.56-2.54,5.34a3,3,0,0,1-2.69,1.8Zm9.62-18.65a3,3,0,0,1-3-3,3,3,0,0,1,.39-1.48q1.53-2.65,3.07-5.23a3,3,0,0,1,5.24,2.93.86.86,0,0,1-.1.16q-1.51,2.52-3,5.12a3,3,0,0,1-2.54,1.59Zm11.68-18.59a3,3,0,0,1-2.49-4.66c4.15-6.23,8.37-12.22,12-17.34a3,3,0,1,1,4.9,3.47h0c-3.6,5.09-7.79,11-11.9,17.2A3,3,0,0,1,264.3,462.78Zm17.15-24.62a3,3,0,0,1-2.45-4.73q1.74-2.46,3.44-4.89a3,3,0,0,1,4.92,3.44h0q-1.71,2.44-3.46,4.92a3,3,0,0,1-2.43,1.26Zm11.85-17.32a3,3,0,0,1-3-3,3,3,0,0,1,.48-1.64q1.63-2.51,3.18-5a3,3,0,0,1,5.1,3.16q-1.59,2.55-3.25,5.12A3,3,0,0,1,293.3,420.84Zm11.1-19a3,3,0,0,1-2.67-4.36,113.68,113.68,0,0,0,7.69-18.92,3,3,0,1,1,5.75,1.72,119.22,119.22,0,0,1-8.08,19.9,3,3,0,0,1-2.66,1.69Zm10.06-28.12a3,3,0,0,1-3-3,2.91,2.91,0,0,1,.06-.6c.38-1.89.69-3.82.94-5.71a3,3,0,1,1,5.95.78c-.26,2-.6,4.08-1,6.1a3,3,0,0,1-2.91,2.44Zm1.65-20.85a3,3,0,0,1-3-2.89c-.07-1.91-.21-3.86-.4-5.79a3,3,0,1,1,6-.61c.21,2.06.35,4.14.43,6.17a3,3,0,0,1-2.88,3.11Zm-3.27-21.71a3,3,0,0,1-2.9-2.24,112,112,0,0,0-7-19.18,3,3,0,0,1,5.44-2.54,118.07,118.07,0,0,1,7.33,20.2,3,3,0,0,1-2.14,3.66,3.23,3.23,0,0,1-.76.1Zm-11.22-27.71A3,3,0,0,1,299,301.9c-.93-1.68-1.92-3.4-2.94-5.09a3,3,0,0,1,5-3.33,1.76,1.76,0,0,1,.14.23c1.06,1.76,2.09,3.54,3.06,5.29a3,3,0,0,1-1.17,4.07,2.93,2.93,0,0,1-1.45.38ZM290.3,285.82a3,3,0,0,1-2.43-1.24c-1.13-1.55-2.32-3.14-3.54-4.73A3,3,0,1,1,289,276l.12.16c1.26,1.63,2.49,3.27,3.65,4.87a3,3,0,0,1-2.42,4.76Zm-13.76-17.15a3,3,0,0,1-2.26-1c-4.27-4.89-8.9-9.89-14.16-15.28a3,3,0,1,1,4.3-4.19c5.33,5.47,10,10.54,14.38,15.52a3,3,0,0,1-.23,4.23,3,3,0,0,1-2,.77Zm-20.61-21.79a3,3,0,0,1-2.11-.87q-2.1-2.08-4.26-4.18a3,3,0,0,1,4-4.44l.14.14q2.19,2.11,4.3,4.22a3,3,0,0,1-2.11,5.13Zm-15.14-14.55a3.05,3.05,0,0,1-2-.81l-4.38-4.08a3,3,0,1,1,4.08-4.4l4.4,4.1a3,3,0,0,1-2,5.19Zm-16.2-14.89a3.07,3.07,0,0,1-2-.78c-4.46-4-9.42-8.49-15.61-14a3,3,0,0,1,4-4.48c6.2,5.53,11.17,10,15.64,14a3,3,0,0,1-2,5.22Zm-22.35-20a3,3,0,0,1-2-.76l-4.48-4a3,3,0,1,1,4-4.48l4.48,4a3,3,0,0,1-2,5.24Zm-15.77-13.86a3.05,3.05,0,0,1-2-.72q-2.29-2-4.55-3.87a3,3,0,1,1,3.87-4.59q2.28,1.9,4.59,3.9a3,3,0,0,1-2,5.28Zm-16.88-14.09a3,3,0,0,1-1.9-.68c-4.45-3.64-8.73-7.08-12.83-10.38l-3.49-2.81a3,3,0,0,1,3.77-4.67l3.48,2.81q6.15,5,12.86,10.4a3,3,0,0,1-1.9,5.32ZM146.3,150.63a3,3,0,0,1-1.89-.67l-4.65-3.83a3,3,0,0,1,3.83-4.62c1.5,1.24,3,2.51,4.61,3.79a3,3,0,0,1-1.9,5.32ZM130.3,137a3,3,0,0,1-2-.77c-1.57-1.42-3.07-2.81-4.46-4.14a3,3,0,1,1,4-4.45l.12.12c1.34,1.29,2.8,2.64,4.33,4a3,3,0,0,1,.23,4.23,3,3,0,0,1-2.23,1ZM115,121.28a3,3,0,0,1-2.33-1.11,72.33,72.33,0,0,1-11.25-18.65A3,3,0,0,1,107,99.24v.05a66.22,66.22,0,0,0,10.31,17.1,3,3,0,0,1-2.33,4.89ZM101.52,94.83A3,3,0,0,1,98.6,92.5c-.46-2-.83-4.09-1.1-6.18a3,3,0,1,1,6-.76,55.92,55.92,0,0,0,1,5.6,3,3,0,0,1-2.25,3.59,3.08,3.08,0,0,1-.68.08ZM100.3,74H100a3,3,0,0,1-2.7-3.27h0c.2-2,.5-4.12.88-6.18a3,3,0,0,1,5.9,1.09c-.35,1.9-.62,3.81-.81,5.69A3,3,0,0,1,100.3,74Zm5.28-21.28a3,3,0,0,1-3-3,3.16,3.16,0,0,1,.21-1.1,115.5,115.5,0,0,1,9.84-19.16,3,3,0,0,1,5.07,3.21,109.14,109.14,0,0,0-9.33,18.15,3,3,0,0,1-2.78,1.92Zm14.64-26.1a3,3,0,0,1-2.43-4.76c1.17-1.61,2.4-3.26,3.67-4.88a3,3,0,0,1,4.73,3.69c-1.23,1.57-2.42,3.15-3.54,4.71a3,3,0,0,1-2.43,1.26Zm13.32-16.23a3,3,0,0,1-2.21-5c1.34-1.46,2.74-2.95,4.17-4.43a3,3,0,1,1,4.32,4.17c-1.39,1.44-2.76,2.9-4.06,4.32a3,3,0,0,1-2.22,1Z" fill="url(#929c046d-412c-40b5-9f3f-21602c70fee8)"/></g><g opacity="0.6"><path d="M52.74,1549.11a3,3,0,0,1-3-2.45c-1.3-7-2.5-14-3.54-20.8a3,3,0,0,1,5.92-1,.28.28,0,0,1,0,.09c1,6.78,2.22,13.71,3.51,20.6a3,3,0,0,1-2.4,3.5,3.83,3.83,0,0,1-.6,0Zm-4.82-29.61a3,3,0,0,1-3-2.59q-.41-3-.79-6a3,3,0,0,1,6-.76q.38,2.94.78,5.92a3,3,0,0,1-2.56,3.38Zm-2.48-20.85a3,3,0,0,1-3-2.7c-.2-2-.38-4-.56-6a3,3,0,1,1,6-.53c.18,2,.36,3.94.56,5.94a3,3,0,0,1-2.69,3.28Zm-1.72-21.93a3,3,0,0,1-3-2.83c-.41-7.09-.66-14.19-.75-21.12a3,3,0,1,1,6-.08c.09,6.84.34,13.85.75,20.85a3,3,0,0,1-2.82,3.17h-.18Zm-.78-30h0a3,3,0,0,1-3-3q0-3,.08-6a3,3,0,1,1,6,.12q-.06,3-.07,6a3,3,0,0,1-3,2.89Zm.63-21H43.4a3,3,0,0,1-2.83-3.16q.16-3,.37-6a3,3,0,1,1,6,.41h0q-.19,2.94-.37,6a3,3,0,0,1-3,2.83Zm1.78-21.92H45a3,3,0,0,1-2.66-3.31h0c.77-7.06,1.74-14.12,2.88-21a3,3,0,0,1,5.92,1c-1.12,6.74-2.07,13.68-2.83,20.63a3,3,0,0,1-3,2.7Zm4.44-29.66a3.66,3.66,0,0,1-.57-.05,3,3,0,0,1-2.38-3.51q.58-3,1.19-5.93a3,3,0,0,1,5.87,1.23q-.6,2.88-1.17,5.83a3,3,0,0,1-2.94,2.46Zm4.59-20.49a3,3,0,0,1-3-3,3.14,3.14,0,0,1,.09-.75q.77-3,1.56-5.85a3,3,0,0,1,5.83,1.43,1.54,1.54,0,0,1,0,.17q-.78,2.82-1.53,5.75a3,3,0,0,1-2.9,2.28Zm6.19-21.1a3,3,0,0,1-3-3,3,3,0,0,1,.15-1c2.23-6.72,4.7-13.42,7.35-19.89a3,3,0,1,1,5.63,2.07,1.67,1.67,0,0,1-.08.2c-2.6,6.34-5,12.91-7.21,19.5a3,3,0,0,1-2.84,2.1Zm10.81-28a3,3,0,0,1-2.74-4.22q1.26-2.83,2.52-5.51a3,3,0,0,1,5.43,2.55q-1.23,2.63-2.47,5.4a3,3,0,0,1-2.74,1.84Zm9.07-18.94a3,3,0,0,1-2.68-4.35c.91-1.8,1.82-3.6,2.73-5.38a3,3,0,0,1,5.34,2.74h0c-.9,1.76-1.81,3.54-2.71,5.33a3,3,0,0,1-2.67,1.71Zm10.17-19.52a3,3,0,0,1-2.64-4.42c3.25-6,6.7-12.24,10.23-18.44a3,3,0,1,1,5.21,3c-3.51,6.15-6.93,12.31-10.16,18.31a3,3,0,0,1-2.63,1.6ZM105.3,1240a3,3,0,0,1-3-3,3,3,0,0,1,.4-1.5l3.05-5.19a3,3,0,0,1,5.22,3l-.06.09q-1.5,2.54-3,5.16A3,3,0,0,1,105.3,1240Zm10.79-18a3,3,0,0,1-2.56-4.57l3.16-5.13a3,3,0,0,1,5.14,3.1l0,.06q-1.55,2.49-3.14,5.1a3,3,0,0,1-2.54,1.44Zm11.71-18.65a3,3,0,0,1-3-3,3,3,0,0,1,.47-1.61c3.94-6.12,7.84-12,11.61-17.61a3,3,0,0,1,5,3.36h0c-3.74,5.52-7.62,11.41-11.53,17.5a3,3,0,0,1-2.54,1.34Zm16.67-25a3,3,0,0,1-2.46-4.72l.91-1.3,2.6-3.63a3,3,0,0,1,5,3.35l-.11.15-2.58,3.61-.88,1.26a3,3,0,0,1-2.44,1.26Zm12.35-17a3,3,0,0,1-2.4-4.79c1.22-1.64,2.43-3.25,3.61-4.81a3,3,0,1,1,4.79,3.62c-1.18,1.56-2.37,3.15-3.59,4.78a3,3,0,0,1-2.39,1.19Zm13.32-17.49a3,3,0,0,1-2.37-4.83l3.52-4.55c3.23-4.17,6.32-8.16,9.27-12a3,3,0,1,1,4.78,3.63c-3,3.9-6.06,7.91-9.3,12.09l-3.52,4.55a3,3,0,0,1-2.36,1.15Zm18.2-23.82a3,3,0,0,1-3-3,3,3,0,0,1,.58-1.77q1.78-2.43,3.49-4.81a3,3,0,1,1,4.93,3.43l0,.06q-1.74,2.43-3.55,4.89a3,3,0,0,1-2.39,1.17Zm12-17.27a3,3,0,0,1-3-3,3.15,3.15,0,0,1,.47-1.61c1.07-1.68,2.11-3.37,3.11-5a3,3,0,1,1,5.15,3.08c-1,1.71-2.1,3.45-3.19,5.17A3,3,0,0,1,200.3,1102.73Zm10.8-19.13a3,3,0,0,1-3-3,3.05,3.05,0,0,1,.31-1.33,196.2,196.2,0,0,0,8.13-19,3,3,0,1,1,5.63,2.08,203,203,0,0,1-8.37,19.57,3,3,0,0,1-2.72,1.68Zm11.2-27.77a3,3,0,0,1-3-3,3.21,3.21,0,0,1,.14-.92c.61-1.86,1.2-3.77,1.77-5.66A3,3,0,1,1,227,1048c-.58,1.94-1.19,3.89-1.81,5.8A3,3,0,0,1,222.3,1055.83Zm5.66-20.22a3,3,0,0,1-3-3,3.17,3.17,0,0,1,.08-.69c.45-1.92.88-3.86,1.29-5.79a3,3,0,1,1,5.91,1.06,1.36,1.36,0,0,1,0,.17c-.41,2-.86,4-1.32,5.93a3,3,0,0,1-2.94,2.32ZM232,1014h-.43a3,3,0,0,1-2.54-3.39c1-6.88,1.68-13.82,2.06-20.64a3,3,0,1,1,6,.33c-.39,7-1.1,14.11-2.11,21.15a3,3,0,0,1-3,2.51Zm2.41-29.89h0a3,3,0,0,1-3-3h0v-5.92a3,3,0,0,1,3-3h0a3,3,0,0,1,3,3v6.09a3,3,0,0,1-3,2.83Zm-.75-21a3,3,0,0,1-3-2.73c-.18-2-.38-3.93-.61-5.89a3,3,0,1,1,6-.7q.36,3,.63,6a3,3,0,0,1-2.71,3.26h0Zm-3.07-21.78a3,3,0,0,1-2.94-2.44c-1.29-6.72-2.92-13.5-4.84-20.15a3,3,0,0,1,5.71-1.85,1.21,1.21,0,0,1,.05.18c2,6.83,3.65,13.78,5,20.68a3,3,0,0,1-2.38,3.51,3.2,3.2,0,0,1-.62.09Zm-7.57-29a3,3,0,0,1-2.85-2.06c-.62-1.86-1.27-3.75-1.93-5.6a3,3,0,0,1,5.65-2c.68,1.9,1.35,3.83,2,5.75a3,3,0,0,1-2.85,3.94ZM215.6,892.7a3,3,0,0,1-2.76-1.81c-.78-1.81-1.59-3.63-2.41-5.42a3,3,0,1,1,5.45-2.51c.84,1.83,1.67,3.7,2.47,5.55a3,3,0,0,1-2.75,4.19ZM206,872.9a3,3,0,0,1-2.64-1.57c-3.07-5.67-5.76-10.13-8-13.74-.7-1.13-1.56-2.45-2.63-4a3,3,0,1,1,5-3.38h0c1.12,1.65,2,3,2.78,4.24,2.28,3.69,5,8.24,8.17,14a3,3,0,0,1-2.64,4.43Zm-16-25.37a3,3,0,0,1-2.43-1.24c-1.08-1.49-2.25-3.1-3.53-4.82a3,3,0,1,1,4.83-3.56h0c1.28,1.74,2.47,3.36,3.55,4.86a3,3,0,0,1-2.43,4.76Zm-12.5-16.85a3,3,0,0,1-2.4-1.2l-3.6-4.79a3,3,0,0,1,4.7-3.74l.09.13,3.61,4.8a3,3,0,0,1-2.4,4.8Zm-13.2-17.57a3,3,0,0,1-2.4-1.19l-8.37-11.08-4.29-5.66a3,3,0,1,1,4.78-3.63h0l4.3,5.67,8.38,11.08a3,3,0,0,1-2.39,4.81Zm-18.13-23.9a3,3,0,0,1-2.38-1.18l-3.65-4.75a3,3,0,0,1,4.75-3.66l3.66,4.77a3,3,0,0,1-2.38,4.82ZM133.3,772.58a3,3,0,0,1-2.37-1.16l-3.63-4.74a3,3,0,0,1,4.54-3.93,1.16,1.16,0,0,1,.16.21l3.68,4.74a3,3,0,0,1-2.37,4.84ZM120.11,755a3,3,0,0,1-2.5-1.33l-.3-.45c-2.6-3.88-6.53-9.75-11.22-17.28a3,3,0,0,1,5.09-3.17c4.64,7.45,8.54,13.26,11.11,17.11l.3.45A3,3,0,0,1,120.1,755ZM104,729.63a3,3,0,0,1-2.58-1.46q-1.5-2.52-3.07-5.21a3,3,0,0,1,5.07-3.22l.12.22q1.56,2.65,3,5.14a3,3,0,0,1-2.57,4.54ZM93.56,711.36a3,3,0,0,1-2.64-1.58q-1.41-2.61-2.83-5.34a3,3,0,0,1,5.32-2.78q1.41,2.69,2.8,5.27a3,3,0,0,1-2.64,4.43Zm-10-19.63A3,3,0,0,1,80.85,690c-3.07-6.44-6-12.94-8.61-19.34a3,3,0,0,1,5.54-2.29c2.61,6.3,5.46,12.71,8.48,19.05a3,3,0,0,1-2.71,4.29ZM71.7,664.17a3,3,0,0,1-2.8-1.92q-1.08-2.82-2.13-5.67a3,3,0,0,1,5.63-2.07q1,2.81,2.1,5.57A3,3,0,0,1,72.78,664a3,3,0,0,1-1.08.2Zm-7-19.82a3,3,0,0,1-2.86-2.09c-.6-1.92-1.2-3.85-1.78-5.79a3,3,0,0,1,5.75-1.71c.57,1.9,1.15,3.8,1.75,5.68a3,3,0,0,1-2,3.77,3.09,3.09,0,0,1-.91.14Zm-5.9-21.19a3,3,0,0,1-2.91-2.3c-1.68-7-3.08-14-4.16-20.82a3,3,0,1,1,5.93-.94c1.06,6.66,2.43,13.51,4.07,20.36a3,3,0,0,1-2.21,3.61,2.82,2.82,0,0,1-.71.09Zm-5.37-29.51a3,3,0,0,1-3-2.64c-.25-2-.47-4-.66-6.06a3,3,0,1,1,6-.57c.19,2,.4,3.94.64,5.91a3,3,0,0,1-2.61,3.34h0Zm-1.57-21a3,3,0,0,1-3-2.92c0-1.94-.08-3.9-.08-5.81v-.28a3,3,0,0,1,6,0V564c0,1.86,0,3.76.08,5.65A3,3,0,0,1,52,572.69h0Zm.59-22H52.2a3,3,0,0,1-2.74-3.24h0a187.84,187.84,0,0,1,3-21.13,3,3,0,0,1,5.88,1.18A181.24,181.24,0,0,0,55.43,548a3,3,0,0,1-3,2.74Zm4.9-29.56a3,3,0,0,1-3-3,3.06,3.06,0,0,1,.09-.74c.5-2,1-4,1.61-5.89a3,3,0,0,1,5.77,1.67h0c-.55,1.87-1.07,3.79-1.55,5.69a3,3,0,0,1-3,2.3Zm6.42-20a3,3,0,0,1-3-3A3.16,3.16,0,0,1,61,497c.74-1.88,1.52-3.78,2.33-5.64a3,3,0,1,1,5.58,2.21,1.42,1.42,0,0,1-.08.18c-.78,1.79-1.54,3.63-2.25,5.44a3,3,0,0,1-2.79,2Zm9.34-19.88a3,3,0,0,1-2.62-4.45,189.85,189.85,0,0,1,11.36-18,3,3,0,1,1,4.9,3.47h0a183.58,183.58,0,0,0-11,17.46,3,3,0,0,1-2.64,1.59Zm16.53-25a3,3,0,0,1-2.37-4.83c1.21-1.56,2.47-3.16,3.77-4.76a3,3,0,1,1,4.66,3.78c-1.26,1.56-2.5,3.12-3.68,4.65a3,3,0,0,1-2.38,1.25ZM103.1,440.1a3,3,0,0,1-2.24-5q2-2.28,4-4.48a3,3,0,0,1,4.44,4.14h0l-4,4.42a3,3,0,0,1-2.2,1ZM118,424a3,3,0,0,1-2.18-5.06l.11-.12c5-5.24,9.62-10.19,14.09-15.23a3,3,0,1,1,4.48,4h0C130,412.73,125.3,417.71,120.3,423l-.11.12a3,3,0,0,1-2.15,1Zm20.14-22.23a3,3,0,0,1-2.31-4.92c1.3-1.56,2.54-3.11,3.7-4.6A3,3,0,1,1,144.3,396h0c-1.2,1.54-2.48,3.13-3.82,4.74a3,3,0,0,1-2.3,1.11Zm12.36-16.94A3,3,0,0,1,148,380.2c1-1.68,2-3.37,2.92-5a3,3,0,1,1,5.38,2.67l-.11.19c-1,1.76-2,3.55-3.09,5.33a3,3,0,0,1-2.55,1.48Zm9.37-19.8a3,3,0,0,1-2.85-3.94,77.89,77.89,0,0,0,3.79-19.76,3,3,0,1,1,6,.38,83.72,83.72,0,0,1-4.09,21.3,3,3,0,0,1-2.85,2.11Zm4-29.5a3,3,0,0,1-3-2.89v-.87c-.07-1.64-.19-3.29-.35-4.93a3,3,0,1,1,6-.59c.17,1.74.3,3.5.38,5.24v.93a3,3,0,0,1-2.88,3.11h-.15Zm-3-20.73a3,3,0,0,1-2.91-2.27c-.46-1.86-1-3.75-1.57-5.62a3,3,0,0,1,5.73-1.76c.61,2,1.16,4,1.65,5.93a3,3,0,0,1-2.91,3.73ZM153.64,294a3,3,0,0,1-2.74-1.77A174.48,174.48,0,0,0,141.31,274a3,3,0,0,1,5.15-3.07,181.49,181.49,0,0,1,9.91,18.89,3,3,0,0,1-1.5,4,3,3,0,0,1-1.24.27ZM139.21,268a3,3,0,0,1-2.52-1.37q-1.59-2.46-3.27-5a3,3,0,1,1,5-3.36q1.72,2.53,3.34,5a3,3,0,0,1-.88,4.15,3.08,3.08,0,0,1-1.64.48Zm-12-17.25a3,3,0,0,1-2.42-1.22c-1.16-1.58-2.35-3.18-3.57-4.78a3,3,0,1,1,4.79-3.62c1.23,1.62,2.43,3.24,3.61,4.84a3,3,0,0,1-2.41,4.78ZM113.8,233.28a3,3,0,0,1-2.35-1.13c-3.92-4.92-8.25-10.23-13.23-16.23a3,3,0,1,1,4.62-3.83c5,6,9.36,11.37,13.31,16.32a3,3,0,0,1-2.34,4.87Zm-19-23.18A3,3,0,0,1,92.5,209l-3.86-4.58a3,3,0,0,1,4.59-3.87l3.87,4.6a3,3,0,0,1-2.3,4.93Zm-13.55-16A3,3,0,0,1,79,193l-3.88-4.57a3,3,0,0,1,4.57-3.89l3.89,4.57a3,3,0,0,1-.34,4.23,3,3,0,0,1-2,.71ZM66.89,177.44a3,3,0,0,1-2.25-1c-4.27-4.81-8.74-9.73-14.08-15.48a3,3,0,0,1,4.4-4.08c5.37,5.78,9.88,10.73,14.18,15.58a3,3,0,0,1-2.24,5Zm-20.27-22.1a3,3,0,0,1-2.19-1L40.3,150a3,3,0,0,1,4.38-4.1l4.1,4.38a3,3,0,0,1-2.19,5ZM32.3,139.87a3,3,0,0,1-2.22-1c-1.38-1.52-2.72-3-4-4.49a3,3,0,1,1,4.49-4q1.93,2.18,4,4.43a3,3,0,0,1-.23,4.23,3,3,0,0,1-2,.77ZM18.1,123.1a3,3,0,0,1-2.39-1.19A92.33,92.33,0,0,1,4.47,103.42,3,3,0,1,1,10,101a86.59,86.59,0,0,0,10.52,17.27,3,3,0,0,1-2.39,4.81ZM4.3,96.75a3,3,0,0,1-2.9-2.24,56.7,56.7,0,0,1-1.25-6.2,3,3,0,0,1,5.93-1s0,.07,0,.11A52,52,0,0,0,7.2,93a3,3,0,0,1-2.14,3.66,3.23,3.23,0,0,1-.76.1ZM3,76H2.63A3,3,0,0,1,0,72.61H0c.26-2.06.62-4.14,1.08-6.19A3,3,0,1,1,7,67.55a1.06,1.06,0,0,1,0,.19c-.42,1.86-.75,3.75-1,5.62A3,3,0,0,1,3,76ZM9.37,55a3,3,0,0,1-3-3,3.1,3.1,0,0,1,.3-1.31,97.09,97.09,0,0,1,11.69-18.2A3,3,0,0,1,23,36.2,91.14,91.14,0,0,0,12,53.26,3,3,0,0,1,9.37,55Zm17.22-24.4a3,3,0,0,1-2.2-5c1.36-1.47,2.8-2.94,4.26-4.4a3,3,0,0,1,4.22,4.26c-1.41,1.39-2.78,2.81-4.09,4.22A3,3,0,0,1,26.59,30.56ZM41.9,16.2A3,3,0,0,1,40,10.89c1.53-1.27,3.13-2.56,4.74-3.82a3,3,0,1,1,3.7,4.73c-1.57,1.23-3.12,2.48-4.61,3.71A3,3,0,0,1,41.9,16.2Z" fill="url(#69500718-26f0-4ee0-acef-ad996d147e55)"/></g></svg>